<?xml version="1.0" encoding="UTF-8" standalone="no"?>
<!DOCTYPE svg PUBLIC "-//W3C//DTD SVG 1.1//EN"
 "http://www.w3.org/Graphics/SVG/1.1/DTD/svg11.dtd">
<!-- Generated by graphviz version 12.1.2 (20240928.0832)
 -->
<!-- Title: todo Pages: 1 -->
<svg width="1607pt" height="1497pt"
 viewBox="0.00 0.00 1606.74 1497.20" xmlns="http://www.w3.org/2000/svg" xmlns:xlink="http://www.w3.org/1999/xlink">
<g id="graph0" class="graph" transform="scale(1 1) rotate(0) translate(4 1493.2)">
<title>todo</title>
<polygon fill="white" stroke="none" points="-4,4 -4,-1493.2 1602.74,-1493.2 1602.74,4 -4,4"/>
<!-- todo.atlas_schema_revisions -->
<g id="node1" class="node">
<title>todo.atlas_schema_revisions</title>
<polygon fill="#efefef" stroke="none" points="43.2,-1410.4 43.2,-1446 388.14,-1446 388.14,-1410.4 43.2,-1410.4"/>
<polygon fill="none" stroke="black" points="43.2,-1410.4 43.2,-1446 388.14,-1446 388.14,-1410.4 43.2,-1410.4"/>
<text text-anchor="start" x="50.2" y="-1423.8" font-family="Arial Bold" font-size="18.00">todo.atlas_schema_revisions</text>
<text text-anchor="start" x="256.66" y="-1423.8" font-family="Arial" font-size="14.00">    </text>
<text text-anchor="start" x="287.77" y="-1423.8" font-family="Arial" font-size="14.00" fill="#666666">[BASE TABLE]</text>
<polygon fill="none" stroke="black" points="43.2,-1379.6 43.2,-1410.4 388.14,-1410.4 388.14,-1379.6 43.2,-1379.6"/>
<text text-anchor="start" x="50.2" y="-1391.8" font-family="Arial" font-size="14.00">version </text>
<text text-anchor="start" x="99.22" y="-1391.8" font-family="Arial" font-size="14.00" fill="#666666">[varchar]</text>
<polygon fill="none" stroke="black" points="43.2,-1348.8 43.2,-1379.6 388.14,-1379.6 388.14,-1348.8 43.2,-1348.8"/>
<text text-anchor="start" x="50.2" y="-1361" font-family="Arial" font-size="14.00">description </text>
<text text-anchor="start" x="121.79" y="-1361" font-family="Arial" font-size="14.00" fill="#666666">[varchar]</text>
<polygon fill="none" stroke="black" points="43.2,-1318 43.2,-1348.8 388.14,-1348.8 388.14,-1318 43.2,-1318"/>
<text text-anchor="start" x="50.2" y="-1330.2" font-family="Arial" font-size="14.00">type </text>
<text text-anchor="start" x="80.55" y="-1330.2" font-family="Arial" font-size="14.00" fill="#666666">[bigint]</text>
<polygon fill="none" stroke="black" points="43.2,-1287.2 43.2,-1318 388.14,-1318 388.14,-1287.2 43.2,-1287.2"/>
<text text-anchor="start" x="50.2" y="-1299.4" font-family="Arial" font-size="14.00">applied </text>
<text text-anchor="start" x="99.24" y="-1299.4" font-family="Arial" font-size="14.00" fill="#666666">[bigint]</text>
<polygon fill="none" stroke="black" points="43.2,-1256.4 43.2,-1287.2 388.14,-1287.2 388.14,-1256.4 43.2,-1256.4"/>
<text text-anchor="start" x="50.2" y="-1268.6" font-family="Arial" font-size="14.00">total </text>
<text text-anchor="start" x="80.55" y="-1268.6" font-family="Arial" font-size="14.00" fill="#666666">[bigint]</text>
<polygon fill="none" stroke="black" points="43.2,-1225.6 43.2,-1256.4 388.14,-1256.4 388.14,-1225.6 43.2,-1225.6"/>
<text text-anchor="start" x="50.2" y="-1237.8" font-family="Arial" font-size="14.00">executed_at </text>
<text text-anchor="start" x="130.37" y="-1237.8" font-family="Arial" font-size="14.00" fill="#666666">[timestamp with time zone]</text>
<polygon fill="none" stroke="black" points="43.2,-1194.8 43.2,-1225.6 388.14,-1225.6 388.14,-1194.8 43.2,-1194.8"/>
<text text-anchor="start" x="50.2" y="-1207" font-family="Arial" font-size="14.00">execution_time </text>
<text text-anchor="start" x="148.25" y="-1207" font-family="Arial" font-size="14.00" fill="#666666">[bigint]</text>
<polygon fill="none" stroke="black" points="43.2,-1164 43.2,-1194.8 388.14,-1194.8 388.14,-1164 43.2,-1164"/>
<text text-anchor="start" x="50.2" y="-1176.2" font-family="Arial" font-size="14.00">error </text>
<text text-anchor="start" x="83.65" y="-1176.2" font-family="Arial" font-size="14.00" fill="#666666">[text]</text>
<polygon fill="none" stroke="black" points="43.2,-1133.2 43.2,-1164 388.14,-1164 388.14,-1133.2 43.2,-1133.2"/>
<text text-anchor="start" x="50.2" y="-1145.4" font-family="Arial" font-size="14.00">error_stmt </text>
<text text-anchor="start" x="117.88" y="-1145.4" font-family="Arial" font-size="14.00" fill="#666666">[text]</text>
<polygon fill="none" stroke="black" points="43.2,-1102.4 43.2,-1133.2 388.14,-1133.2 388.14,-1102.4 43.2,-1102.4"/>
<text text-anchor="start" x="50.2" y="-1114.6" font-family="Arial" font-size="14.00">hash </text>
<text text-anchor="start" x="84.45" y="-1114.6" font-family="Arial" font-size="14.00" fill="#666666">[varchar]</text>
<polygon fill="none" stroke="black" points="43.2,-1071.6 43.2,-1102.4 388.14,-1102.4 388.14,-1071.6 43.2,-1071.6"/>
<text text-anchor="start" x="50.2" y="-1083.8" font-family="Arial" font-size="14.00">partial_hashes </text>
<text text-anchor="start" x="145.15" y="-1083.8" font-family="Arial" font-size="14.00" fill="#666666">[jsonb]</text>
<polygon fill="none" stroke="black" points="43.2,-1040.8 43.2,-1071.6 388.14,-1071.6 388.14,-1040.8 43.2,-1040.8"/>
<text text-anchor="start" x="50.2" y="-1053" font-family="Arial" font-size="14.00">operator_version </text>
<text text-anchor="start" x="159.15" y="-1053" font-family="Arial" font-size="14.00" fill="#666666">[varchar]</text>
</g>
<!-- todo.organizations -->
<g id="node2" class="node">
<title>todo.organizations</title>
<polygon fill="#efefef" stroke="none" points="608.69,-104.8 608.69,-140.4 880.65,-140.4 880.65,-104.8 608.69,-104.8"/>
<polygon fill="none" stroke="black" points="608.69,-104.8 608.69,-140.4 880.65,-140.4 880.65,-104.8 608.69,-104.8"/>
<text text-anchor="start" x="615.69" y="-118.2" font-family="Arial Bold" font-size="18.00">todo.organizations</text>
<text text-anchor="start" x="749.16" y="-118.2" font-family="Arial" font-size="14.00">    </text>
<text text-anchor="start" x="780.28" y="-118.2" font-family="Arial" font-size="14.00" fill="#666666">[BASE TABLE]</text>
<polygon fill="none" stroke="black" points="608.69,-74 608.69,-104.8 880.65,-104.8 880.65,-74 608.69,-74"/>
<text text-anchor="start" x="615.69" y="-86.2" font-family="Arial" font-size="14.00">id </text>
<text text-anchor="start" x="630.48" y="-86.2" font-family="Arial" font-size="14.00" fill="#666666">[uuid]</text>
<polygon fill="none" stroke="black" points="608.69,-43.2 608.69,-74 880.65,-74 880.65,-43.2 608.69,-43.2"/>
<text text-anchor="start" x="615.69" y="-55.4" font-family="Arial" font-size="14.00">name </text>
<text text-anchor="start" x="654.6" y="-55.4" font-family="Arial" font-size="14.00" fill="#666666">[varchar(255)]</text>
</g>
<!-- todo.users -->
<g id="node3" class="node">
<title>todo.users</title>
<polygon fill="#efefef" stroke="none" points="617.83,-416.8 617.83,-452.4 871.51,-452.4 871.51,-416.8 617.83,-416.8"/>
<polygon fill="none" stroke="black" points="617.83,-416.8 617.83,-452.4 871.51,-452.4 871.51,-416.8 617.83,-416.8"/>
<text text-anchor="start" x="645.68" y="-430.2" font-family="Arial Bold" font-size="18.00">todo.users</text>
<text text-anchor="start" x="719.17" y="-430.2" font-family="Arial" font-size="14.00">    </text>
<text text-anchor="start" x="750.29" y="-430.2" font-family="Arial" font-size="14.00" fill="#666666">[BASE TABLE]</text>
<polygon fill="none" stroke="black" points="617.83,-386 617.83,-416.8 871.51,-416.8 871.51,-386 617.83,-386"/>
<text text-anchor="start" x="624.83" y="-398.2" font-family="Arial" font-size="14.00">id </text>
<text text-anchor="start" x="639.62" y="-398.2" font-family="Arial" font-size="14.00" fill="#666666">[uuid]</text>
<polygon fill="none" stroke="black" points="617.83,-355.2 617.83,-386 871.51,-386 871.51,-355.2 617.83,-355.2"/>
<text text-anchor="start" x="624.83" y="-367.4" font-family="Arial" font-size="14.00">name </text>
<text text-anchor="start" x="663.74" y="-367.4" font-family="Arial" font-size="14.00" fill="#666666">[varchar(255)]</text>
<polygon fill="none" stroke="black" points="617.83,-324.4 617.83,-355.2 871.51,-355.2 871.51,-324.4 617.83,-324.4"/>
<text text-anchor="start" x="624.83" y="-336.6" font-family="Arial" font-size="14.00">created_at </text>
<text text-anchor="start" x="694.88" y="-336.6" font-family="Arial" font-size="14.00" fill="#666666">[timestamp with time zone]</text>
<polygon fill="none" stroke="black" points="617.83,-293.6 617.83,-324.4 871.51,-324.4 871.51,-293.6 617.83,-293.6"/>
<text text-anchor="start" x="624.83" y="-305.8" font-family="Arial" font-size="14.00">updated_at </text>
<text text-anchor="start" x="698.79" y="-305.8" font-family="Arial" font-size="14.00" fill="#666666">[timestamp with time zone]</text>
<polygon fill="none" stroke="black" points="617.83,-262.8 617.83,-293.6 871.51,-293.6 871.51,-262.8 617.83,-262.8"/>
<text text-anchor="start" x="624.83" y="-275" font-family="Arial" font-size="14.00">organization_id </text>
<text text-anchor="start" x="723.68" y="-275" font-family="Arial" font-size="14.00" fill="#666666">[uuid]</text>
</g>
<!-- todo.users&#45;&gt;todo.organizations -->
<g id="edge1" class="edge">
<title>todo.users:organization_id&#45;&gt;todo.organizations:id</title>
<path fill="none" stroke="black" d="M745.55,-251.41C755.5,-197.4 847.35,-240.47 880.65,-183.6 901.81,-147.47 923.52,-89.4 881.65,-89.4"/>
<polygon fill="black" stroke="black" points="745.54,-251.5 740.22,-261.09 745.09,-256.82 744.73,-261.13 744.73,-261.13 744.73,-261.13 745.09,-256.82 749.18,-261.85 745.54,-251.5"/>
<text text-anchor="start" x="421.99" y="-271.8" font-family="Arial" font-size="10.00">FOREIGN KEY (organization_id) REFERENCES todo.organizations(id)</text>
</g>
<!-- todo.organization_users -->
<g id="node4" class="node">
<title>todo.organization_users</title>
<polygon fill="#efefef" stroke="none" points="805.2,-759.6 805.2,-795.2 1116.15,-795.2 1116.15,-759.6 805.2,-759.6"/>
<polygon fill="none" stroke="black" points="805.2,-759.6 805.2,-795.2 1116.15,-795.2 1116.15,-759.6 805.2,-759.6"/>
<text text-anchor="start" x="812.2" y="-773" font-family="Arial Bold" font-size="18.00">todo.organization_users</text>
<text text-anchor="start" x="984.66" y="-773" font-family="Arial" font-size="14.00">    </text>
<text text-anchor="start" x="1015.77" y="-773" font-family="Arial" font-size="14.00" fill="#666666">[BASE TABLE]</text>
<polygon fill="none" stroke="black" points="805.2,-728.8 805.2,-759.6 1116.15,-759.6 1116.15,-728.8 805.2,-728.8"/>
<text text-anchor="start" x="812.2" y="-741" font-family="Arial" font-size="14.00">organization_id </text>
<text text-anchor="start" x="911.05" y="-741" font-family="Arial" font-size="14.00" fill="#666666">[uuid]</text>
<polygon fill="none" stroke="black" points="805.2,-698 805.2,-728.8 1116.15,-728.8 1116.15,-698 805.2,-698"/>
<text text-anchor="start" x="812.2" y="-710.2" font-family="Arial" font-size="14.00">user_id </text>
<text text-anchor="start" x="862" y="-710.2" font-family="Arial" font-size="14.00" fill="#666666">[uuid]</text>
</g>
<!-- todo.organization_users&#45;&gt;todo.organizations -->
<g id="edge2" class="edge">
<title>todo.organization_users:organization_id&#45;&gt;todo.organizations:id</title>
<path fill="none" stroke="black" d="M794.1,-742.67C770,-733.83 793.78,-688.63 805.2,-654.8 833.4,-571.23 895.94,-579.32 923.67,-495.6 980.75,-323.31 1063.15,-89.4 881.65,-89.4"/>
<polygon fill="black" stroke="black" points="793.98,-742.65 803.19,-748.6 799.25,-743.45 803.54,-744.1 803.54,-744.1 803.54,-744.1 799.25,-743.45 804.54,-739.7 793.98,-742.65"/>
<text text-anchor="start" x="728.78" y="-728.2" font-family="Arial" font-size="10.00">FOREIGN KEY (organization_id) REFERENCES todo.organizations(id)</text>
</g>
<!-- todo.organization_users&#45;&gt;todo.users -->
<g id="edge3" class="edge">
<title>todo.organization_users:user_id&#45;&gt;todo.users:id</title>
<path fill="none" stroke="black" d="M793.98,-712.76C680.48,-697.16 1010.72,-401.4 872.51,-401.4"/>
<polygon fill="black" stroke="black" points="793.88,-712.75 803.58,-717.87 799.21,-713.09 803.53,-713.36 803.53,-713.36 803.53,-713.36 799.21,-713.09 804.15,-708.89 793.88,-712.75"/>
<text text-anchor="start" x="616.48" y="-697.4" font-family="Arial" font-size="10.00">FOREIGN KEY (user_id) REFERENCES todo.users(id)</text>
</g>
<!-- todo.todos -->
<g id="node5" class="node">
<title>todo.todos</title>
<polygon fill="#efefef" stroke="none" points="408.83,-882.8 408.83,-918.4 662.51,-918.4 662.51,-882.8 408.83,-882.8"/>
<polygon fill="none" stroke="black" points="408.83,-882.8 408.83,-918.4 662.51,-918.4 662.51,-882.8 408.83,-882.8"/>
<text text-anchor="start" x="435.67" y="-896.2" font-family="Arial Bold" font-size="18.00">todo.todos</text>
<text text-anchor="start" x="511.18" y="-896.2" font-family="Arial" font-size="14.00">    </text>
<text text-anchor="start" x="542.3" y="-896.2" font-family="Arial" font-size="14.00" fill="#666666">[BASE TABLE]</text>
<polygon fill="none" stroke="black" points="408.83,-852 408.83,-882.8 662.51,-882.8 662.51,-852 408.83,-852"/>
<text text-anchor="start" x="415.83" y="-864.2" font-family="Arial" font-size="14.00">id </text>
<text text-anchor="start" x="430.62" y="-864.2" font-family="Arial" font-size="14.00" fill="#666666">[uuid]</text>
<polygon fill="none" stroke="black" points="408.83,-821.2 408.83,-852 662.51,-852 662.51,-821.2 408.83,-821.2"/>
<text text-anchor="start" x="415.83" y="-833.4" font-family="Arial" font-size="14.00">due_date </text>
<text text-anchor="start" x="478.11" y="-833.4" font-family="Arial" font-size="14.00" fill="#666666">[timestamp with time zone]</text>
<polygon fill="none" stroke="black" points="408.83,-790.4 408.83,-821.2 662.51,-821.2 662.51,-790.4 408.83,-790.4"/>
<text text-anchor="start" x="415.83" y="-802.6" font-family="Arial" font-size="14.00">title </text>
<text text-anchor="start" x="441.51" y="-802.6" font-family="Arial" font-size="14.00" fill="#666666">[varchar(255)]</text>
<polygon fill="none" stroke="black" points="408.83,-759.6 408.83,-790.4 662.51,-790.4 662.51,-759.6 408.83,-759.6"/>
<text text-anchor="start" x="415.83" y="-771.8" font-family="Arial" font-size="14.00">description </text>
<text text-anchor="start" x="487.42" y="-771.8" font-family="Arial" font-size="14.00" fill="#666666">[text]</text>
<polygon fill="none" stroke="black" points="408.83,-728.8 408.83,-759.6 662.51,-759.6 662.51,-728.8 408.83,-728.8"/>
<text text-anchor="start" x="415.83" y="-741" font-family="Arial" font-size="14.00">status </text>
<text text-anchor="start" x="457.07" y="-741" font-family="Arial" font-size="14.00" fill="#666666">[varchar(50)]</text>
<polygon fill="none" stroke="black" points="408.83,-698 408.83,-728.8 662.51,-728.8 662.51,-698 408.83,-698"/>
<text text-anchor="start" x="415.83" y="-710.2" font-family="Arial" font-size="14.00">visibility </text>
<text text-anchor="start" x="467.95" y="-710.2" font-family="Arial" font-size="14.00" fill="#666666">[varchar(50)]</text>
<polygon fill="none" stroke="black" points="408.83,-667.2 408.83,-698 662.51,-698 662.51,-667.2 408.83,-667.2"/>
<text text-anchor="start" x="415.83" y="-679.4" font-family="Arial" font-size="14.00">created_by_user_id </text>
<text text-anchor="start" x="542.69" y="-679.4" font-family="Arial" font-size="14.00" fill="#666666">[uuid]</text>
<polygon fill="none" stroke="black" points="408.83,-636.4 408.83,-667.2 662.51,-667.2 662.51,-636.4 408.83,-636.4"/>
<text text-anchor="start" x="415.83" y="-648.6" font-family="Arial" font-size="14.00">organization_id </text>
<text text-anchor="start" x="514.68" y="-648.6" font-family="Arial" font-size="14.00" fill="#666666">[uuid]</text>
<polygon fill="none" stroke="black" points="408.83,-605.6 408.83,-636.4 662.51,-636.4 662.51,-605.6 408.83,-605.6"/>
<text text-anchor="start" x="415.83" y="-617.8" font-family="Arial" font-size="14.00">created_at </text>
<text text-anchor="start" x="485.88" y="-617.8" font-family="Arial" font-size="14.00" fill="#666666">[timestamp with time zone]</text>
<polygon fill="none" stroke="black" points="408.83,-574.8 408.83,-605.6 662.51,-605.6 662.51,-574.8 408.83,-574.8"/>
<text text-anchor="start" x="415.83" y="-587" font-family="Arial" font-size="14.00">updated_at </text>
<text text-anchor="start" x="489.79" y="-587" font-family="Arial" font-size="14.00" fill="#666666">[timestamp with time zone]</text>
</g>
<!-- todo.todos&#45;&gt;todo.organizations -->
<g id="edge4" class="edge">
<title>todo.todos:organization_id&#45;&gt;todo.organizations:id</title>
<path fill="none" stroke="black" d="M673.66,-650.7C713.56,-641.21 691.03,-572.26 662.51,-531.6 636.15,-494.01 591.88,-533.3 565.67,-495.6 462.08,-346.57 426.2,-89.4 607.69,-89.4"/>
<polygon fill="black" stroke="black" points="673.79,-650.69 663.36,-647.29 668.48,-651.26 664.18,-651.73 664.18,-651.73 664.18,-651.73 668.48,-651.26 664.33,-656.24 673.79,-650.69"/>
<text text-anchor="start" x="670.51" y="-635.8" font-family="Arial" font-size="10.00">FOREIGN KEY (organization_id) REFERENCES todo.organizations(id)</text>
</g>
<!-- todo.todos&#45;&gt;todo.users -->
<g id="edge5" class="edge">
<title>todo.todos:created_by_user_id&#45;&gt;todo.users:id</title>
<path fill="none" stroke="black" d="M673.92,-681.75C726.25,-672.44 690.03,-588.62 662.51,-531.6 651.43,-508.63 628.96,-518.55 617.83,-495.6 599.56,-457.93 574.96,-401.4 616.83,-401.4"/>
<polygon fill="black" stroke="black" points="673.81,-681.76 663.48,-678.09 668.5,-682.19 664.18,-682.55 664.18,-682.55 664.18,-682.55 668.5,-682.19 664.21,-687.06 673.81,-681.76"/>
<text text-anchor="start" x="591.85" y="-666.6" font-family="Arial" font-size="10.00">FOREIGN KEY (created_by_user_id) REFERENCES todo.users(id)</text>
</g>
<!-- todo.todo_assignees -->
<g id="node6" class="node">
<title>todo.todo_assignees</title>
<polygon fill="#efefef" stroke="none" points="492.68,-1302.6 492.68,-1338.2 776.66,-1338.2 776.66,-1302.6 492.68,-1302.6"/>
<polygon fill="none" stroke="black" points="492.68,-1302.6 492.68,-1338.2 776.66,-1338.2 776.66,-1302.6 492.68,-1302.6"/>
<text text-anchor="start" x="499.68" y="-1316" font-family="Arial Bold" font-size="18.00">todo.todo_assignees</text>
<text text-anchor="start" x="645.17" y="-1316" font-family="Arial" font-size="14.00">    </text>
<text text-anchor="start" x="676.29" y="-1316" font-family="Arial" font-size="14.00" fill="#666666">[BASE TABLE]</text>
<polygon fill="none" stroke="black" points="492.68,-1271.8 492.68,-1302.6 776.66,-1302.6 776.66,-1271.8 492.68,-1271.8"/>
<text text-anchor="start" x="499.68" y="-1284" font-family="Arial" font-size="14.00">user_id </text>
<text text-anchor="start" x="549.49" y="-1284" font-family="Arial" font-size="14.00" fill="#666666">[uuid]</text>
<polygon fill="none" stroke="black" points="492.68,-1241 492.68,-1271.8 776.66,-1271.8 776.66,-1241 492.68,-1241"/>
<text text-anchor="start" x="499.68" y="-1253.2" font-family="Arial" font-size="14.00">todo_id </text>
<text text-anchor="start" x="549.51" y="-1253.2" font-family="Arial" font-size="14.00" fill="#666666">[uuid]</text>
<polygon fill="none" stroke="black" points="492.68,-1210.2 492.68,-1241 776.66,-1241 776.66,-1210.2 492.68,-1210.2"/>
<text text-anchor="start" x="499.68" y="-1222.4" font-family="Arial" font-size="14.00">created_at </text>
<text text-anchor="start" x="569.73" y="-1222.4" font-family="Arial" font-size="14.00" fill="#666666">[timestamp with time zone]</text>
<polygon fill="none" stroke="black" points="492.68,-1179.4 492.68,-1210.2 776.66,-1210.2 776.66,-1179.4 492.68,-1179.4"/>
<text text-anchor="start" x="499.68" y="-1191.6" font-family="Arial" font-size="14.00">updated_at </text>
<text text-anchor="start" x="573.64" y="-1191.6" font-family="Arial" font-size="14.00" fill="#666666">[timestamp with time zone]</text>
<polygon fill="none" stroke="black" points="492.68,-1148.6 492.68,-1179.4 776.66,-1179.4 776.66,-1148.6 492.68,-1148.6"/>
<text text-anchor="start" x="499.68" y="-1160.8" font-family="Arial" font-size="14.00">created_by_user_id </text>
<text text-anchor="start" x="626.55" y="-1160.8" font-family="Arial" font-size="14.00" fill="#666666">[uuid]</text>
</g>
<!-- todo.todo_assignees&#45;&gt;todo.users -->
<g id="edge6" class="edge">
<title>todo.todo_assignees:user_id&#45;&gt;todo.users:id</title>
<path fill="none" stroke="black" d="M788.02,-1286.54C851.59,-1277.75 783.23,-1182.13 776.66,-1105.4 771.13,-1040.84 760.86,-1025.87 752.67,-961.6 740.55,-866.44 772.84,-607.88 714.67,-531.6 686.83,-495.09 644.24,-533.16 617.83,-495.6 593.75,-461.35 574.96,-401.4 616.83,-401.4"/>
<polygon fill="black" stroke="black" points="787.97,-1286.55 777.71,-1282.69 782.65,-1286.88 778.33,-1287.16 778.33,-1287.16 778.33,-1287.16 782.65,-1286.88 778.28,-1291.67 787.97,-1286.55"/>
<text text-anchor="start" x="784.66" y="-1297.2" font-family="Arial" font-size="10.00">FOREIGN KEY (user_id) REFERENCES todo.users(id)</text>
</g>
<!-- todo.todo_assignees&#45;&gt;todo.todos -->
<g id="edge7" class="edge">
<title>todo.todo_assignees:todo_id&#45;&gt;todo.todos:id</title>
<path fill="none" stroke="black" d="M481.29,-1255.55C429.03,-1246.28 465.87,-1162.75 492.68,-1105.4 534.58,-1015.81 620.44,-1051.11 662.51,-961.6 680.32,-923.71 705.38,-867.4 663.51,-867.4"/>
<polygon fill="black" stroke="black" points="481.38,-1255.56 490.99,-1260.86 486.7,-1255.99 491.02,-1256.35 491.02,-1256.35 491.02,-1256.35 486.7,-1255.99 491.72,-1251.89 481.38,-1255.56"/>
<text text-anchor="start" x="303.96" y="-1240.4" font-family="Arial" font-size="10.00">FOREIGN KEY (todo_id) REFERENCES todo.todos(id)</text>
</g>
<!-- todo.roles -->
<g id="node7" class="node">
<title>todo.roles</title>
<polygon fill="#efefef" stroke="none" points="1239.68,-370.6 1239.68,-406.2 1449.66,-406.2 1449.66,-370.6 1239.68,-370.6"/>
<polygon fill="none" stroke="black" points="1239.68,-370.6 1239.68,-406.2 1449.66,-406.2 1449.66,-370.6 1239.68,-370.6"/>
<text text-anchor="start" x="1246.68" y="-384" font-family="Arial Bold" font-size="18.00">todo.roles</text>
<text text-anchor="start" x="1318.17" y="-384" font-family="Arial" font-size="14.00">    </text>
<text text-anchor="start" x="1349.29" y="-384" font-family="Arial" font-size="14.00" fill="#666666">[BASE TABLE]</text>
<polygon fill="none" stroke="black" points="1239.68,-339.8 1239.68,-370.6 1449.66,-370.6 1449.66,-339.8 1239.68,-339.8"/>
<text text-anchor="start" x="1246.68" y="-352" font-family="Arial" font-size="14.00">id </text>
<text text-anchor="start" x="1261.47" y="-352" font-family="Arial" font-size="14.00" fill="#666666">[uuid]</text>
<polygon fill="none" stroke="black" points="1239.68,-309 1239.68,-339.8 1449.66,-339.8 1449.66,-309 1239.68,-309"/>
<text text-anchor="start" x="1246.68" y="-321.2" font-family="Arial" font-size="14.00">name </text>
<text text-anchor="start" x="1285.59" y="-321.2" font-family="Arial" font-size="14.00" fill="#666666">[varchar(50)]</text>
</g>
<!-- todo.user_roles -->
<g id="node8" class="node">
<title>todo.user_roles</title>
<polygon fill="#efefef" stroke="none" points="1220.19,-759.6 1220.19,-795.2 1469.16,-795.2 1469.16,-759.6 1220.19,-759.6"/>
<polygon fill="none" stroke="black" points="1220.19,-759.6 1220.19,-795.2 1469.16,-795.2 1469.16,-759.6 1220.19,-759.6"/>
<text text-anchor="start" x="1227.19" y="-773" font-family="Arial Bold" font-size="18.00">todo.user_roles</text>
<text text-anchor="start" x="1337.67" y="-773" font-family="Arial" font-size="14.00">    </text>
<text text-anchor="start" x="1368.78" y="-773" font-family="Arial" font-size="14.00" fill="#666666">[BASE TABLE]</text>
<polygon fill="none" stroke="black" points="1220.19,-728.8 1220.19,-759.6 1469.16,-759.6 1469.16,-728.8 1220.19,-728.8"/>
<text text-anchor="start" x="1227.19" y="-741" font-family="Arial" font-size="14.00">user_id </text>
<text text-anchor="start" x="1276.99" y="-741" font-family="Arial" font-size="14.00" fill="#666666">[uuid]</text>
<polygon fill="none" stroke="black" points="1220.19,-698 1220.19,-728.8 1469.16,-728.8 1469.16,-698 1220.19,-698"/>
<text text-anchor="start" x="1227.19" y="-710.2" font-family="Arial" font-size="14.00">role_id </text>
<text text-anchor="start" x="1273.11" y="-710.2" font-family="Arial" font-size="14.00" fill="#666666">[uuid]</text>
</g>
<!-- todo.user_roles&#45;&gt;todo.users -->
<g id="edge8" class="edge">
<title>todo.user_roles:user_id&#45;&gt;todo.users:id</title>
<path fill="none" stroke="black" d="M1209.21,-743.64C1129.91,-734.04 1228.55,-603.43 1168.67,-531.6 1076.6,-421.16 1016.3,-401.4 872.51,-401.4"/>
<polygon fill="black" stroke="black" points="1208.87,-743.62 1218.6,-748.67 1214.2,-743.92 1218.52,-744.16 1218.52,-744.16 1218.52,-744.16 1214.2,-743.92 1219.11,-739.69 1208.87,-743.62"/>
<text text-anchor="start" x="1226.19" y="-754.2" font-family="Arial" font-size="10.00">FOREIGN KEY (user_id) REFERENCES todo.users(id)</text>
</g>
<!-- todo.user_roles&#45;&gt;todo.roles -->
<g id="edge9" class="edge">
<title>todo.user_roles:role_id&#45;&gt;todo.roles:id</title>
<path fill="none" stroke="black" d="M1345.03,-686.72C1355.86,-530.18 1606.29,-355.2 1450.66,-355.2"/>
<polygon fill="black" stroke="black" points="1345.03,-686.67 1340.19,-696.51 1344.85,-692 1344.7,-696.33 1344.7,-696.33 1344.7,-696.33 1344.85,-692 1349.18,-696.82 1345.03,-686.67"/>
<text text-anchor="start" x="1351.67" y="-707" font-family="Arial" font-size="10.00">FOREIGN KEY (role_id) REFERENCES todo.roles(id)</text>
</g>
</g>
</svg>
