<?xml version="1.0" encoding="UTF-8" standalone="no"?>
<!DOCTYPE svg PUBLIC "-//W3C//DTD SVG 1.1//EN"
 "http://www.w3.org/Graphics/SVG/1.1/DTD/svg11.dtd">
<!-- Generated by graphviz version 12.1.2 (20240928.0832)
 -->
<!-- Title: todo.roles Pages: 1 -->
<svg width="430pt" height="417pt"
 viewBox="0.00 0.00 429.75 417.20" xmlns="http://www.w3.org/2000/svg" xmlns:xlink="http://www.w3.org/1999/xlink">
<g id="graph0" class="graph" transform="scale(1 1) rotate(0) translate(4 413.2)">
<title>todo.roles</title>
<polygon fill="white" stroke="none" points="-4,4 -4,-413.2 425.75,-413.2 425.75,4 -4,4"/>
<!-- todo.roles -->
<g id="node1" class="node">
<title>todo.roles</title>
<polygon fill="#efefef" stroke="none" points="149.07,-107.8 149.07,-143.4 359.05,-143.4 359.05,-107.8 149.07,-107.8"/>
<polygon fill="none" stroke="black" points="149.07,-107.8 149.07,-143.4 359.05,-143.4 359.05,-107.8 149.07,-107.8"/>
<text text-anchor="start" x="156.07" y="-121.2" font-family="Arial Bold" font-size="18.00">todo.roles</text>
<text text-anchor="start" x="227.56" y="-121.2" font-family="Arial" font-size="14.00">    </text>
<text text-anchor="start" x="258.68" y="-121.2" font-family="Arial" font-size="14.00" fill="#666666">[BASE TABLE]</text>
<polygon fill="none" stroke="black" points="149.07,-77 149.07,-107.8 359.05,-107.8 359.05,-77 149.07,-77"/>
<text text-anchor="start" x="156.07" y="-89.2" font-family="Arial" font-size="14.00">id </text>
<text text-anchor="start" x="170.86" y="-89.2" font-family="Arial" font-size="14.00" fill="#666666">[uuid]</text>
<polygon fill="none" stroke="black" points="149.07,-46.2 149.07,-77 359.05,-77 359.05,-46.2 149.07,-46.2"/>
<text text-anchor="start" x="156.07" y="-58.4" font-family="Arial" font-size="14.00">name </text>
<text text-anchor="start" x="194.98" y="-58.4" font-family="Arial" font-size="14.00" fill="#666666">[varchar(50)]</text>
<polygon fill="none" stroke="black" stroke-width="3" points="147.57,-44.7 147.57,-144.9 360.55,-144.9 360.55,-44.7 147.57,-44.7"/>
</g>
<!-- todo.user_roles -->
<g id="node2" class="node">
<title>todo.user_roles</title>
<polygon fill="#efefef" stroke="none" points="129.58,-330.4 129.58,-366 378.55,-366 378.55,-330.4 129.58,-330.4"/>
<polygon fill="none" stroke="black" points="129.58,-330.4 129.58,-366 378.55,-366 378.55,-330.4 129.58,-330.4"/>
<text text-anchor="start" x="136.58" y="-343.8" font-family="Arial Bold" font-size="18.00">todo.user_roles</text>
<text text-anchor="start" x="247.06" y="-343.8" font-family="Arial" font-size="14.00">    </text>
<text text-anchor="start" x="278.18" y="-343.8" font-family="Arial" font-size="14.00" fill="#666666">[BASE TABLE]</text>
<polygon fill="none" stroke="black" points="129.58,-299.6 129.58,-330.4 378.55,-330.4 378.55,-299.6 129.58,-299.6"/>
<text text-anchor="start" x="136.58" y="-311.8" font-family="Arial" font-size="14.00">user_id </text>
<text text-anchor="start" x="186.39" y="-311.8" font-family="Arial" font-size="14.00" fill="#666666">[uuid]</text>
<polygon fill="none" stroke="black" points="129.58,-268.8 129.58,-299.6 378.55,-299.6 378.55,-268.8 129.58,-268.8"/>
<text text-anchor="start" x="136.58" y="-281" font-family="Arial" font-size="14.00">role_id </text>
<text text-anchor="start" x="182.5" y="-281" font-family="Arial" font-size="14.00" fill="#666666">[uuid]</text>
</g>
<!-- todo.user_roles&#45;&gt;todo.roles -->
<g id="edge1" class="edge">
<title>todo.user_roles:role_id&#45;&gt;todo.roles:id</title>
<path fill="none" stroke="black" d="M255.01,-257.63C263.98,-213.37 334.38,-238.12 359.05,-189.6 378.64,-151.09 403.26,-92.4 360.05,-92.4"/>
<polygon fill="black" stroke="black" points="255.02,-257.51 249.61,-267.05 254.53,-262.82 254.13,-267.13 254.13,-267.13 254.13,-267.13 254.53,-262.82 258.58,-267.88 255.02,-257.51"/>
<text text-anchor="start" x="7" y="-277.8" font-family="Arial" font-size="10.00">FOREIGN KEY (role_id) REFERENCES todo.roles(id)</text>
</g>
</g>
</svg>
