<?xml version="1.0" encoding="UTF-8" standalone="no"?>
<!DOCTYPE svg PUBLIC "-//W3C//DTD SVG 1.1//EN"
 "http://www.w3.org/Graphics/SVG/1.1/DTD/svg11.dtd">
<!-- Generated by graphviz version 12.1.2 (20240928.0832)
 -->
<!-- Title: todo.organization_users Pages: 1 -->
<svg width="910pt" height="510pt"
 viewBox="0.00 0.00 910.25 509.60" xmlns="http://www.w3.org/2000/svg" xmlns:xlink="http://www.w3.org/1999/xlink">
<g id="graph0" class="graph" transform="scale(1 1) rotate(0) translate(4 505.6)">
<title>todo.organization_users</title>
<polygon fill="white" stroke="none" points="-4,4 -4,-505.6 906.25,-505.6 906.25,4 -4,4"/>
<!-- todo.organization_users -->
<g id="node1" class="node">
<title>todo.organization_users</title>
<polygon fill="#efefef" stroke="none" points="330.68,-419.8 330.68,-455.4 641.63,-455.4 641.63,-419.8 330.68,-419.8"/>
<polygon fill="none" stroke="black" points="330.68,-419.8 330.68,-455.4 641.63,-455.4 641.63,-419.8 330.68,-419.8"/>
<text text-anchor="start" x="337.68" y="-433.2" font-family="Arial Bold" font-size="18.00">todo.organization_users</text>
<text text-anchor="start" x="510.14" y="-433.2" font-family="Arial" font-size="14.00">    </text>
<text text-anchor="start" x="541.25" y="-433.2" font-family="Arial" font-size="14.00" fill="#666666">[BASE TABLE]</text>
<polygon fill="none" stroke="black" points="330.68,-389 330.68,-419.8 641.63,-419.8 641.63,-389 330.68,-389"/>
<text text-anchor="start" x="337.68" y="-401.2" font-family="Arial" font-size="14.00">organization_id </text>
<text text-anchor="start" x="436.53" y="-401.2" font-family="Arial" font-size="14.00" fill="#666666">[uuid]</text>
<polygon fill="none" stroke="black" points="330.68,-358.2 330.68,-389 641.63,-389 641.63,-358.2 330.68,-358.2"/>
<text text-anchor="start" x="337.68" y="-370.4" font-family="Arial" font-size="14.00">user_id </text>
<text text-anchor="start" x="387.49" y="-370.4" font-family="Arial" font-size="14.00" fill="#666666">[uuid]</text>
<polygon fill="none" stroke="black" stroke-width="3" points="329.18,-356.7 329.18,-456.9 643.13,-456.9 643.13,-356.7 329.18,-356.7"/>
</g>
<!-- todo.organizations -->
<g id="node2" class="node">
<title>todo.organizations</title>
<polygon fill="#efefef" stroke="none" points="167.17,-151 167.17,-186.6 439.13,-186.6 439.13,-151 167.17,-151"/>
<polygon fill="none" stroke="black" points="167.17,-151 167.17,-186.6 439.13,-186.6 439.13,-151 167.17,-151"/>
<text text-anchor="start" x="174.17" y="-164.4" font-family="Arial Bold" font-size="18.00">todo.organizations</text>
<text text-anchor="start" x="307.64" y="-164.4" font-family="Arial" font-size="14.00">    </text>
<text text-anchor="start" x="338.76" y="-164.4" font-family="Arial" font-size="14.00" fill="#666666">[BASE TABLE]</text>
<polygon fill="none" stroke="black" points="167.17,-120.2 167.17,-151 439.13,-151 439.13,-120.2 167.17,-120.2"/>
<text text-anchor="start" x="174.17" y="-132.4" font-family="Arial" font-size="14.00">id </text>
<text text-anchor="start" x="188.96" y="-132.4" font-family="Arial" font-size="14.00" fill="#666666">[uuid]</text>
<polygon fill="none" stroke="black" points="167.17,-89.4 167.17,-120.2 439.13,-120.2 439.13,-89.4 167.17,-89.4"/>
<text text-anchor="start" x="174.17" y="-101.6" font-family="Arial" font-size="14.00">name </text>
<text text-anchor="start" x="213.08" y="-101.6" font-family="Arial" font-size="14.00" fill="#666666">[varchar(255)]</text>
</g>
<!-- todo.organization_users&#45;&gt;todo.organizations -->
<g id="edge1" class="edge">
<title>todo.organization_users:organization_id&#45;&gt;todo.organizations:id</title>
<path fill="none" stroke="black" d="M319.43,-402.88C293.17,-393.7 314.01,-345.1 330.68,-312 357.88,-257.98 411.93,-283.82 439.13,-229.8 457.96,-192.4 482,-135.6 440.13,-135.6"/>
<polygon fill="black" stroke="black" points="319.46,-402.88 328.69,-408.8 324.73,-403.66 329.02,-404.3 329.02,-404.3 329.02,-404.3 324.73,-403.66 330.01,-399.9 319.46,-402.88"/>
<text text-anchor="start" x="7" y="-414.4" font-family="Arial" font-size="10.00">FOREIGN KEY (organization_id) REFERENCES todo.organizations(id)</text>
</g>
<!-- todo.users -->
<g id="node3" class="node">
<title>todo.users</title>
<polygon fill="#efefef" stroke="none" points="543.31,-197.2 543.31,-232.8 796.99,-232.8 796.99,-197.2 543.31,-197.2"/>
<polygon fill="none" stroke="black" points="543.31,-197.2 543.31,-232.8 796.99,-232.8 796.99,-197.2 543.31,-197.2"/>
<text text-anchor="start" x="571.16" y="-210.6" font-family="Arial Bold" font-size="18.00">todo.users</text>
<text text-anchor="start" x="644.66" y="-210.6" font-family="Arial" font-size="14.00">    </text>
<text text-anchor="start" x="675.77" y="-210.6" font-family="Arial" font-size="14.00" fill="#666666">[BASE TABLE]</text>
<polygon fill="none" stroke="black" points="543.31,-166.4 543.31,-197.2 796.99,-197.2 796.99,-166.4 543.31,-166.4"/>
<text text-anchor="start" x="550.31" y="-178.6" font-family="Arial" font-size="14.00">id </text>
<text text-anchor="start" x="565.1" y="-178.6" font-family="Arial" font-size="14.00" fill="#666666">[uuid]</text>
<polygon fill="none" stroke="black" points="543.31,-135.6 543.31,-166.4 796.99,-166.4 796.99,-135.6 543.31,-135.6"/>
<text text-anchor="start" x="550.31" y="-147.8" font-family="Arial" font-size="14.00">name </text>
<text text-anchor="start" x="589.22" y="-147.8" font-family="Arial" font-size="14.00" fill="#666666">[varchar(255)]</text>
<polygon fill="none" stroke="black" points="543.31,-104.8 543.31,-135.6 796.99,-135.6 796.99,-104.8 543.31,-104.8"/>
<text text-anchor="start" x="550.31" y="-117" font-family="Arial" font-size="14.00">created_at </text>
<text text-anchor="start" x="620.36" y="-117" font-family="Arial" font-size="14.00" fill="#666666">[timestamp with time zone]</text>
<polygon fill="none" stroke="black" points="543.31,-74 543.31,-104.8 796.99,-104.8 796.99,-74 543.31,-74"/>
<text text-anchor="start" x="550.31" y="-86.2" font-family="Arial" font-size="14.00">updated_at </text>
<text text-anchor="start" x="624.27" y="-86.2" font-family="Arial" font-size="14.00" fill="#666666">[timestamp with time zone]</text>
<polygon fill="none" stroke="black" points="543.31,-43.2 543.31,-74 796.99,-74 796.99,-43.2 543.31,-43.2"/>
<text text-anchor="start" x="550.31" y="-55.4" font-family="Arial" font-size="14.00">organization_id </text>
<text text-anchor="start" x="649.16" y="-55.4" font-family="Arial" font-size="14.00" fill="#666666">[uuid]</text>
</g>
<!-- todo.organization_users&#45;&gt;todo.users -->
<g id="edge2" class="edge">
<title>todo.organization_users:user_id&#45;&gt;todo.users:id</title>
<path fill="none" stroke="black" d="M652.68,-370.94C666.02,-361.74 655.01,-330.83 641.63,-312 614.67,-274.07 570.17,-314 543.31,-276 519.15,-241.81 500.44,-181.8 542.31,-181.8"/>
<polygon fill="black" stroke="black" points="652.62,-370.95 641.8,-369.16 647.46,-372.32 643.27,-373.43 643.27,-373.43 643.27,-373.43 647.46,-372.32 644.1,-377.86 652.62,-370.95"/>
<text text-anchor="start" x="649.63" y="-383.6" font-family="Arial" font-size="10.00">FOREIGN KEY (user_id) REFERENCES todo.users(id)</text>
</g>
</g>
</svg>
