<?xml version="1.0" encoding="UTF-8" standalone="no"?>
<!DOCTYPE svg PUBLIC "-//W3C//DTD SVG 1.1//EN"
 "http://www.w3.org/Graphics/SVG/1.1/DTD/svg11.dtd">
<!-- Generated by graphviz version 12.1.2 (20240928.0832)
 -->
<!-- Title: todo.user_roles Pages: 1 -->
<svg width="773pt" height="510pt"
 viewBox="0.00 0.00 772.65 509.60" xmlns="http://www.w3.org/2000/svg" xmlns:xlink="http://www.w3.org/1999/xlink">
<g id="graph0" class="graph" transform="scale(1 1) rotate(0) translate(4 505.6)">
<title>todo.user_roles</title>
<polygon fill="white" stroke="none" points="-4,4 -4,-505.6 768.65,-505.6 768.65,4 -4,4"/>
<!-- todo.user_roles -->
<g id="node1" class="node">
<title>todo.user_roles</title>
<polygon fill="#efefef" stroke="none" points="260.62,-419.8 260.62,-455.4 509.59,-455.4 509.59,-419.8 260.62,-419.8"/>
<polygon fill="none" stroke="black" points="260.62,-419.8 260.62,-455.4 509.59,-455.4 509.59,-419.8 260.62,-419.8"/>
<text text-anchor="start" x="267.62" y="-433.2" font-family="Arial Bold" font-size="18.00">todo.user_roles</text>
<text text-anchor="start" x="378.1" y="-433.2" font-family="Arial" font-size="14.00">    </text>
<text text-anchor="start" x="409.22" y="-433.2" font-family="Arial" font-size="14.00" fill="#666666">[BASE TABLE]</text>
<polygon fill="none" stroke="black" points="260.62,-389 260.62,-419.8 509.59,-419.8 509.59,-389 260.62,-389"/>
<text text-anchor="start" x="267.62" y="-401.2" font-family="Arial" font-size="14.00">user_id </text>
<text text-anchor="start" x="317.43" y="-401.2" font-family="Arial" font-size="14.00" fill="#666666">[uuid]</text>
<polygon fill="none" stroke="black" points="260.62,-358.2 260.62,-389 509.59,-389 509.59,-358.2 260.62,-358.2"/>
<text text-anchor="start" x="267.62" y="-370.4" font-family="Arial" font-size="14.00">role_id </text>
<text text-anchor="start" x="313.54" y="-370.4" font-family="Arial" font-size="14.00" fill="#666666">[uuid]</text>
<polygon fill="none" stroke="black" stroke-width="3" points="259.12,-356.7 259.12,-456.9 511.09,-456.9 511.09,-356.7 259.12,-356.7"/>
</g>
<!-- todo.users -->
<g id="node2" class="node">
<title>todo.users</title>
<polygon fill="#efefef" stroke="none" points="90.26,-197.2 90.26,-232.8 343.94,-232.8 343.94,-197.2 90.26,-197.2"/>
<polygon fill="none" stroke="black" points="90.26,-197.2 90.26,-232.8 343.94,-232.8 343.94,-197.2 90.26,-197.2"/>
<text text-anchor="start" x="118.11" y="-210.6" font-family="Arial Bold" font-size="18.00">todo.users</text>
<text text-anchor="start" x="191.61" y="-210.6" font-family="Arial" font-size="14.00">    </text>
<text text-anchor="start" x="222.72" y="-210.6" font-family="Arial" font-size="14.00" fill="#666666">[BASE TABLE]</text>
<polygon fill="none" stroke="black" points="90.26,-166.4 90.26,-197.2 343.94,-197.2 343.94,-166.4 90.26,-166.4"/>
<text text-anchor="start" x="97.26" y="-178.6" font-family="Arial" font-size="14.00">id </text>
<text text-anchor="start" x="112.05" y="-178.6" font-family="Arial" font-size="14.00" fill="#666666">[uuid]</text>
<polygon fill="none" stroke="black" points="90.26,-135.6 90.26,-166.4 343.94,-166.4 343.94,-135.6 90.26,-135.6"/>
<text text-anchor="start" x="97.26" y="-147.8" font-family="Arial" font-size="14.00">name </text>
<text text-anchor="start" x="136.17" y="-147.8" font-family="Arial" font-size="14.00" fill="#666666">[varchar(255)]</text>
<polygon fill="none" stroke="black" points="90.26,-104.8 90.26,-135.6 343.94,-135.6 343.94,-104.8 90.26,-104.8"/>
<text text-anchor="start" x="97.26" y="-117" font-family="Arial" font-size="14.00">created_at </text>
<text text-anchor="start" x="167.31" y="-117" font-family="Arial" font-size="14.00" fill="#666666">[timestamp with time zone]</text>
<polygon fill="none" stroke="black" points="90.26,-74 90.26,-104.8 343.94,-104.8 343.94,-74 90.26,-74"/>
<text text-anchor="start" x="97.26" y="-86.2" font-family="Arial" font-size="14.00">updated_at </text>
<text text-anchor="start" x="171.22" y="-86.2" font-family="Arial" font-size="14.00" fill="#666666">[timestamp with time zone]</text>
<polygon fill="none" stroke="black" points="90.26,-43.2 90.26,-74 343.94,-74 343.94,-43.2 90.26,-43.2"/>
<text text-anchor="start" x="97.26" y="-55.4" font-family="Arial" font-size="14.00">organization_id </text>
<text text-anchor="start" x="196.11" y="-55.4" font-family="Arial" font-size="14.00" fill="#666666">[uuid]</text>
</g>
<!-- todo.user_roles&#45;&gt;todo.users -->
<g id="edge1" class="edge">
<title>todo.user_roles:user_id&#45;&gt;todo.users:id</title>
<path fill="none" stroke="black" d="M249.61,-402.93C222.2,-393.7 240.01,-342.99 260.62,-312 282.96,-278.41 321.61,-309.59 343.94,-276 367.13,-241.13 386.81,-181.8 344.94,-181.8"/>
<polygon fill="black" stroke="black" points="249.39,-402.9 258.64,-408.8 254.67,-403.67 258.96,-404.3 258.96,-404.3 258.96,-404.3 254.67,-403.67 259.94,-399.9 249.39,-402.9"/>
<text text-anchor="start" x="7" y="-414.4" font-family="Arial" font-size="10.00">FOREIGN KEY (user_id) REFERENCES todo.users(id)</text>
</g>
<!-- todo.roles -->
<g id="node3" class="node">
<title>todo.roles</title>
<polygon fill="#efefef" stroke="none" points="448.11,-151 448.11,-186.6 658.09,-186.6 658.09,-151 448.11,-151"/>
<polygon fill="none" stroke="black" points="448.11,-151 448.11,-186.6 658.09,-186.6 658.09,-151 448.11,-151"/>
<text text-anchor="start" x="455.11" y="-164.4" font-family="Arial Bold" font-size="18.00">todo.roles</text>
<text text-anchor="start" x="526.6" y="-164.4" font-family="Arial" font-size="14.00">    </text>
<text text-anchor="start" x="557.72" y="-164.4" font-family="Arial" font-size="14.00" fill="#666666">[BASE TABLE]</text>
<polygon fill="none" stroke="black" points="448.11,-120.2 448.11,-151 658.09,-151 658.09,-120.2 448.11,-120.2"/>
<text text-anchor="start" x="455.11" y="-132.4" font-family="Arial" font-size="14.00">id </text>
<text text-anchor="start" x="469.9" y="-132.4" font-family="Arial" font-size="14.00" fill="#666666">[uuid]</text>
<polygon fill="none" stroke="black" points="448.11,-89.4 448.11,-120.2 658.09,-120.2 658.09,-89.4 448.11,-89.4"/>
<text text-anchor="start" x="455.11" y="-101.6" font-family="Arial" font-size="14.00">name </text>
<text text-anchor="start" x="494.02" y="-101.6" font-family="Arial" font-size="14.00" fill="#666666">[varchar(50)]</text>
</g>
<!-- todo.user_roles&#45;&gt;todo.roles -->
<g id="edge2" class="edge">
<title>todo.user_roles:role_id&#45;&gt;todo.roles:id</title>
<path fill="none" stroke="black" d="M520.53,-370.92C531.85,-362.15 516.99,-333.66 509.59,-312 494.84,-268.83 462.74,-273.01 448.11,-229.8 434.69,-190.14 405.25,-135.6 447.11,-135.6"/>
<polygon fill="black" stroke="black" points="520.57,-370.91 509.74,-369.17 515.42,-372.3 511.23,-373.43 511.23,-373.43 511.23,-373.43 515.42,-372.3 512.08,-377.86 520.57,-370.91"/>
<text text-anchor="start" x="517.59" y="-383.6" font-family="Arial" font-size="10.00">FOREIGN KEY (role_id) REFERENCES todo.roles(id)</text>
</g>
</g>
</svg>
