<?xml version="1.0" encoding="UTF-8" standalone="no"?>
<!DOCTYPE svg PUBLIC "-//W3C//DTD SVG 1.1//EN"
 "http://www.w3.org/Graphics/SVG/1.1/DTD/svg11.dtd">
<!-- Generated by graphviz version 12.1.2 (20240928.0832)
 -->
<!-- Title: todo.todos Pages: 1 -->
<svg width="908pt" height="1068pt"
 viewBox="0.00 0.00 908.02 1068.00" xmlns="http://www.w3.org/2000/svg" xmlns:xlink="http://www.w3.org/1999/xlink">
<g id="graph0" class="graph" transform="scale(1 1) rotate(0) translate(4 1064)">
<title>todo.todos</title>
<polygon fill="white" stroke="none" points="-4,4 -4,-1064 904.02,-1064 904.02,4 -4,4"/>
<!-- todo.todos -->
<g id="node1" class="node">
<title>todo.todos</title>
<polygon fill="#efefef" stroke="none" points="315.66,-666.2 315.66,-701.8 569.34,-701.8 569.34,-666.2 315.66,-666.2"/>
<polygon fill="none" stroke="black" points="315.66,-666.2 315.66,-701.8 569.34,-701.8 569.34,-666.2 315.66,-666.2"/>
<text text-anchor="start" x="342.5" y="-679.6" font-family="Arial Bold" font-size="18.00">todo.todos</text>
<text text-anchor="start" x="418.01" y="-679.6" font-family="Arial" font-size="14.00">    </text>
<text text-anchor="start" x="449.13" y="-679.6" font-family="Arial" font-size="14.00" fill="#666666">[BASE TABLE]</text>
<polygon fill="none" stroke="black" points="315.66,-635.4 315.66,-666.2 569.34,-666.2 569.34,-635.4 315.66,-635.4"/>
<text text-anchor="start" x="322.66" y="-647.6" font-family="Arial" font-size="14.00">id </text>
<text text-anchor="start" x="337.45" y="-647.6" font-family="Arial" font-size="14.00" fill="#666666">[uuid]</text>
<polygon fill="none" stroke="black" points="315.66,-604.6 315.66,-635.4 569.34,-635.4 569.34,-604.6 315.66,-604.6"/>
<text text-anchor="start" x="322.66" y="-616.8" font-family="Arial" font-size="14.00">due_date </text>
<text text-anchor="start" x="384.94" y="-616.8" font-family="Arial" font-size="14.00" fill="#666666">[timestamp with time zone]</text>
<polygon fill="none" stroke="black" points="315.66,-573.8 315.66,-604.6 569.34,-604.6 569.34,-573.8 315.66,-573.8"/>
<text text-anchor="start" x="322.66" y="-586" font-family="Arial" font-size="14.00">title </text>
<text text-anchor="start" x="348.33" y="-586" font-family="Arial" font-size="14.00" fill="#666666">[varchar(255)]</text>
<polygon fill="none" stroke="black" points="315.66,-543 315.66,-573.8 569.34,-573.8 569.34,-543 315.66,-543"/>
<text text-anchor="start" x="322.66" y="-555.2" font-family="Arial" font-size="14.00">description </text>
<text text-anchor="start" x="394.25" y="-555.2" font-family="Arial" font-size="14.00" fill="#666666">[text]</text>
<polygon fill="none" stroke="black" points="315.66,-512.2 315.66,-543 569.34,-543 569.34,-512.2 315.66,-512.2"/>
<text text-anchor="start" x="322.66" y="-524.4" font-family="Arial" font-size="14.00">status </text>
<text text-anchor="start" x="363.9" y="-524.4" font-family="Arial" font-size="14.00" fill="#666666">[varchar(50)]</text>
<polygon fill="none" stroke="black" points="315.66,-481.4 315.66,-512.2 569.34,-512.2 569.34,-481.4 315.66,-481.4"/>
<text text-anchor="start" x="322.66" y="-493.6" font-family="Arial" font-size="14.00">visibility </text>
<text text-anchor="start" x="374.78" y="-493.6" font-family="Arial" font-size="14.00" fill="#666666">[varchar(50)]</text>
<polygon fill="none" stroke="black" points="315.66,-450.6 315.66,-481.4 569.34,-481.4 569.34,-450.6 315.66,-450.6"/>
<text text-anchor="start" x="322.66" y="-462.8" font-family="Arial" font-size="14.00">created_by_user_id </text>
<text text-anchor="start" x="449.52" y="-462.8" font-family="Arial" font-size="14.00" fill="#666666">[uuid]</text>
<polygon fill="none" stroke="black" points="315.66,-419.8 315.66,-450.6 569.34,-450.6 569.34,-419.8 315.66,-419.8"/>
<text text-anchor="start" x="322.66" y="-432" font-family="Arial" font-size="14.00">organization_id </text>
<text text-anchor="start" x="421.51" y="-432" font-family="Arial" font-size="14.00" fill="#666666">[uuid]</text>
<polygon fill="none" stroke="black" points="315.66,-389 315.66,-419.8 569.34,-419.8 569.34,-389 315.66,-389"/>
<text text-anchor="start" x="322.66" y="-401.2" font-family="Arial" font-size="14.00">created_at </text>
<text text-anchor="start" x="392.71" y="-401.2" font-family="Arial" font-size="14.00" fill="#666666">[timestamp with time zone]</text>
<polygon fill="none" stroke="black" points="315.66,-358.2 315.66,-389 569.34,-389 569.34,-358.2 315.66,-358.2"/>
<text text-anchor="start" x="322.66" y="-370.4" font-family="Arial" font-size="14.00">updated_at </text>
<text text-anchor="start" x="396.62" y="-370.4" font-family="Arial" font-size="14.00" fill="#666666">[timestamp with time zone]</text>
<polygon fill="none" stroke="black" stroke-width="3" points="314.16,-356.7 314.16,-703.3 570.84,-703.3 570.84,-356.7 314.16,-356.7"/>
</g>
<!-- todo.users -->
<g id="node3" class="node">
<title>todo.users</title>
<polygon fill="#efefef" stroke="none" points="132.66,-197.2 132.66,-232.8 386.34,-232.8 386.34,-197.2 132.66,-197.2"/>
<polygon fill="none" stroke="black" points="132.66,-197.2 132.66,-232.8 386.34,-232.8 386.34,-197.2 132.66,-197.2"/>
<text text-anchor="start" x="160.51" y="-210.6" font-family="Arial Bold" font-size="18.00">todo.users</text>
<text text-anchor="start" x="234" y="-210.6" font-family="Arial" font-size="14.00">    </text>
<text text-anchor="start" x="265.12" y="-210.6" font-family="Arial" font-size="14.00" fill="#666666">[BASE TABLE]</text>
<polygon fill="none" stroke="black" points="132.66,-166.4 132.66,-197.2 386.34,-197.2 386.34,-166.4 132.66,-166.4"/>
<text text-anchor="start" x="139.66" y="-178.6" font-family="Arial" font-size="14.00">id </text>
<text text-anchor="start" x="154.45" y="-178.6" font-family="Arial" font-size="14.00" fill="#666666">[uuid]</text>
<polygon fill="none" stroke="black" points="132.66,-135.6 132.66,-166.4 386.34,-166.4 386.34,-135.6 132.66,-135.6"/>
<text text-anchor="start" x="139.66" y="-147.8" font-family="Arial" font-size="14.00">name </text>
<text text-anchor="start" x="178.57" y="-147.8" font-family="Arial" font-size="14.00" fill="#666666">[varchar(255)]</text>
<polygon fill="none" stroke="black" points="132.66,-104.8 132.66,-135.6 386.34,-135.6 386.34,-104.8 132.66,-104.8"/>
<text text-anchor="start" x="139.66" y="-117" font-family="Arial" font-size="14.00">created_at </text>
<text text-anchor="start" x="209.71" y="-117" font-family="Arial" font-size="14.00" fill="#666666">[timestamp with time zone]</text>
<polygon fill="none" stroke="black" points="132.66,-74 132.66,-104.8 386.34,-104.8 386.34,-74 132.66,-74"/>
<text text-anchor="start" x="139.66" y="-86.2" font-family="Arial" font-size="14.00">updated_at </text>
<text text-anchor="start" x="213.62" y="-86.2" font-family="Arial" font-size="14.00" fill="#666666">[timestamp with time zone]</text>
<polygon fill="none" stroke="black" points="132.66,-43.2 132.66,-74 386.34,-74 386.34,-43.2 132.66,-43.2"/>
<text text-anchor="start" x="139.66" y="-55.4" font-family="Arial" font-size="14.00">organization_id </text>
<text text-anchor="start" x="238.51" y="-55.4" font-family="Arial" font-size="14.00" fill="#666666">[uuid]</text>
</g>
<!-- todo.todos&#45;&gt;todo.users -->
<g id="edge2" class="edge">
<title>todo.todos:created_by_user_id&#45;&gt;todo.users:id</title>
<path fill="none" stroke="black" d="M304.33,-465.16C249.88,-455.64 281.67,-367.06 315.66,-312 334.18,-282 367.76,-305.96 386.34,-276 408.41,-240.42 429.21,-181.8 387.34,-181.8"/>
<polygon fill="black" stroke="black" points="304.36,-465.16 313.96,-470.46 309.68,-465.6 313.99,-465.95 313.99,-465.95 313.99,-465.95 309.68,-465.6 314.69,-461.49 304.36,-465.16"/>
<text text-anchor="start" x="7" y="-476" font-family="Arial" font-size="10.00">FOREIGN KEY (created_by_user_id) REFERENCES todo.users(id)</text>
</g>
<!-- todo.organizations -->
<g id="node4" class="node">
<title>todo.organizations</title>
<polygon fill="#efefef" stroke="none" points="490.52,-151 490.52,-186.6 762.48,-186.6 762.48,-151 490.52,-151"/>
<polygon fill="none" stroke="black" points="490.52,-151 490.52,-186.6 762.48,-186.6 762.48,-151 490.52,-151"/>
<text text-anchor="start" x="497.52" y="-164.4" font-family="Arial Bold" font-size="18.00">todo.organizations</text>
<text text-anchor="start" x="630.99" y="-164.4" font-family="Arial" font-size="14.00">    </text>
<text text-anchor="start" x="662.11" y="-164.4" font-family="Arial" font-size="14.00" fill="#666666">[BASE TABLE]</text>
<polygon fill="none" stroke="black" points="490.52,-120.2 490.52,-151 762.48,-151 762.48,-120.2 490.52,-120.2"/>
<text text-anchor="start" x="497.52" y="-132.4" font-family="Arial" font-size="14.00">id </text>
<text text-anchor="start" x="512.31" y="-132.4" font-family="Arial" font-size="14.00" fill="#666666">[uuid]</text>
<polygon fill="none" stroke="black" points="490.52,-89.4 490.52,-120.2 762.48,-120.2 762.48,-89.4 490.52,-89.4"/>
<text text-anchor="start" x="497.52" y="-101.6" font-family="Arial" font-size="14.00">name </text>
<text text-anchor="start" x="536.43" y="-101.6" font-family="Arial" font-size="14.00" fill="#666666">[varchar(255)]</text>
</g>
<!-- todo.todos&#45;&gt;todo.organizations -->
<g id="edge3" class="edge">
<title>todo.todos:organization_id&#45;&gt;todo.organizations:id</title>
<path fill="none" stroke="black" d="M580.59,-434.16C620.23,-425.12 588.52,-359.16 569.34,-312 550.27,-265.11 509.65,-276.66 490.52,-229.8 474.7,-191.04 447.65,-135.6 489.52,-135.6"/>
<polygon fill="black" stroke="black" points="580.62,-434.15 570.22,-430.69 575.32,-434.69 571.01,-435.13 571.01,-435.13 571.01,-435.13 575.32,-434.69 571.13,-439.64 580.62,-434.15"/>
<text text-anchor="start" x="577.34" y="-445.2" font-family="Arial" font-size="10.00">FOREIGN KEY (organization_id) REFERENCES todo.organizations(id)</text>
</g>
<!-- todo.todo_assignees -->
<g id="node2" class="node">
<title>todo.todo_assignees</title>
<polygon fill="#efefef" stroke="none" points="300.51,-981.2 300.51,-1016.8 584.49,-1016.8 584.49,-981.2 300.51,-981.2"/>
<polygon fill="none" stroke="black" points="300.51,-981.2 300.51,-1016.8 584.49,-1016.8 584.49,-981.2 300.51,-981.2"/>
<text text-anchor="start" x="307.51" y="-994.6" font-family="Arial Bold" font-size="18.00">todo.todo_assignees</text>
<text text-anchor="start" x="453" y="-994.6" font-family="Arial" font-size="14.00">    </text>
<text text-anchor="start" x="484.12" y="-994.6" font-family="Arial" font-size="14.00" fill="#666666">[BASE TABLE]</text>
<polygon fill="none" stroke="black" points="300.51,-950.4 300.51,-981.2 584.49,-981.2 584.49,-950.4 300.51,-950.4"/>
<text text-anchor="start" x="307.51" y="-962.6" font-family="Arial" font-size="14.00">user_id </text>
<text text-anchor="start" x="357.32" y="-962.6" font-family="Arial" font-size="14.00" fill="#666666">[uuid]</text>
<polygon fill="none" stroke="black" points="300.51,-919.6 300.51,-950.4 584.49,-950.4 584.49,-919.6 300.51,-919.6"/>
<text text-anchor="start" x="307.51" y="-931.8" font-family="Arial" font-size="14.00">todo_id </text>
<text text-anchor="start" x="357.33" y="-931.8" font-family="Arial" font-size="14.00" fill="#666666">[uuid]</text>
<polygon fill="none" stroke="black" points="300.51,-888.8 300.51,-919.6 584.49,-919.6 584.49,-888.8 300.51,-888.8"/>
<text text-anchor="start" x="307.51" y="-901" font-family="Arial" font-size="14.00">created_at </text>
<text text-anchor="start" x="377.56" y="-901" font-family="Arial" font-size="14.00" fill="#666666">[timestamp with time zone]</text>
<polygon fill="none" stroke="black" points="300.51,-858 300.51,-888.8 584.49,-888.8 584.49,-858 300.51,-858"/>
<text text-anchor="start" x="307.51" y="-870.2" font-family="Arial" font-size="14.00">updated_at </text>
<text text-anchor="start" x="381.47" y="-870.2" font-family="Arial" font-size="14.00" fill="#666666">[timestamp with time zone]</text>
<polygon fill="none" stroke="black" points="300.51,-827.2 300.51,-858 584.49,-858 584.49,-827.2 300.51,-827.2"/>
<text text-anchor="start" x="307.51" y="-839.4" font-family="Arial" font-size="14.00">created_by_user_id </text>
<text text-anchor="start" x="434.37" y="-839.4" font-family="Arial" font-size="14.00" fill="#666666">[uuid]</text>
</g>
<!-- todo.todo_assignees&#45;&gt;todo.todos -->
<g id="edge1" class="edge">
<title>todo.todo_assignees:todo_id&#45;&gt;todo.todos:id</title>
<path fill="none" stroke="black" d="M595.89,-934.33C711.03,-919.13 693.25,-650.8 570.34,-650.8"/>
<polygon fill="black" stroke="black" points="595.8,-934.34 585.53,-930.49 590.48,-934.68 586.15,-934.96 586.15,-934.96 586.15,-934.96 590.48,-934.68 586.11,-939.47 595.8,-934.34"/>
<text text-anchor="start" x="592.49" y="-945" font-family="Arial" font-size="10.00">FOREIGN KEY (todo_id) REFERENCES todo.todos(id)</text>
</g>
</g>
</svg>
