<?xml version="1.0" encoding="UTF-8" standalone="no"?>
<!DOCTYPE svg PUBLIC "-//W3C//DTD SVG 1.1//EN"
 "http://www.w3.org/Graphics/SVG/1.1/DTD/svg11.dtd">
<!-- Generated by graphviz version 12.1.2 (20240928.0832)
 -->
<!-- Title: todo.todo_assignees Pages: 1 -->
<svg width="813pt" height="756pt"
 viewBox="0.00 0.00 813.23 756.00" xmlns="http://www.w3.org/2000/svg" xmlns:xlink="http://www.w3.org/1999/xlink">
<g id="graph0" class="graph" transform="scale(1 1) rotate(0) translate(4 752)">
<title>todo.todo_assignees</title>
<polygon fill="white" stroke="none" points="-4,4 -4,-752 809.23,-752 809.23,4 -4,4"/>
<!-- todo.todo_assignees -->
<g id="node1" class="node">
<title>todo.todo_assignees</title>
<polygon fill="#efefef" stroke="none" points="260.62,-666.2 260.62,-701.8 544.59,-701.8 544.59,-666.2 260.62,-666.2"/>
<polygon fill="none" stroke="black" points="260.62,-666.2 260.62,-701.8 544.59,-701.8 544.59,-666.2 260.62,-666.2"/>
<text text-anchor="start" x="267.62" y="-679.6" font-family="Arial Bold" font-size="18.00">todo.todo_assignees</text>
<text text-anchor="start" x="413.11" y="-679.6" font-family="Arial" font-size="14.00">    </text>
<text text-anchor="start" x="444.22" y="-679.6" font-family="Arial" font-size="14.00" fill="#666666">[BASE TABLE]</text>
<polygon fill="none" stroke="black" points="260.62,-635.4 260.62,-666.2 544.59,-666.2 544.59,-635.4 260.62,-635.4"/>
<text text-anchor="start" x="267.62" y="-647.6" font-family="Arial" font-size="14.00">user_id </text>
<text text-anchor="start" x="317.43" y="-647.6" font-family="Arial" font-size="14.00" fill="#666666">[uuid]</text>
<polygon fill="none" stroke="black" points="260.62,-604.6 260.62,-635.4 544.59,-635.4 544.59,-604.6 260.62,-604.6"/>
<text text-anchor="start" x="267.62" y="-616.8" font-family="Arial" font-size="14.00">todo_id </text>
<text text-anchor="start" x="317.44" y="-616.8" font-family="Arial" font-size="14.00" fill="#666666">[uuid]</text>
<polygon fill="none" stroke="black" points="260.62,-573.8 260.62,-604.6 544.59,-604.6 544.59,-573.8 260.62,-573.8"/>
<text text-anchor="start" x="267.62" y="-586" font-family="Arial" font-size="14.00">created_at </text>
<text text-anchor="start" x="337.67" y="-586" font-family="Arial" font-size="14.00" fill="#666666">[timestamp with time zone]</text>
<polygon fill="none" stroke="black" points="260.62,-543 260.62,-573.8 544.59,-573.8 544.59,-543 260.62,-543"/>
<text text-anchor="start" x="267.62" y="-555.2" font-family="Arial" font-size="14.00">updated_at </text>
<text text-anchor="start" x="341.58" y="-555.2" font-family="Arial" font-size="14.00" fill="#666666">[timestamp with time zone]</text>
<polygon fill="none" stroke="black" points="260.62,-512.2 260.62,-543 544.59,-543 544.59,-512.2 260.62,-512.2"/>
<text text-anchor="start" x="267.62" y="-524.4" font-family="Arial" font-size="14.00">created_by_user_id </text>
<text text-anchor="start" x="394.48" y="-524.4" font-family="Arial" font-size="14.00" fill="#666666">[uuid]</text>
<polygon fill="none" stroke="black" stroke-width="3" points="259.12,-510.7 259.12,-703.3 546.09,-703.3 546.09,-510.7 259.12,-510.7"/>
</g>
<!-- todo.users -->
<g id="node2" class="node">
<title>todo.users</title>
<polygon fill="#efefef" stroke="none" points="96.77,-274.2 96.77,-309.8 350.45,-309.8 350.45,-274.2 96.77,-274.2"/>
<polygon fill="none" stroke="black" points="96.77,-274.2 96.77,-309.8 350.45,-309.8 350.45,-274.2 96.77,-274.2"/>
<text text-anchor="start" x="124.62" y="-287.6" font-family="Arial Bold" font-size="18.00">todo.users</text>
<text text-anchor="start" x="198.11" y="-287.6" font-family="Arial" font-size="14.00">    </text>
<text text-anchor="start" x="229.23" y="-287.6" font-family="Arial" font-size="14.00" fill="#666666">[BASE TABLE]</text>
<polygon fill="none" stroke="black" points="96.77,-243.4 96.77,-274.2 350.45,-274.2 350.45,-243.4 96.77,-243.4"/>
<text text-anchor="start" x="103.77" y="-255.6" font-family="Arial" font-size="14.00">id </text>
<text text-anchor="start" x="118.55" y="-255.6" font-family="Arial" font-size="14.00" fill="#666666">[uuid]</text>
<polygon fill="none" stroke="black" points="96.77,-212.6 96.77,-243.4 350.45,-243.4 350.45,-212.6 96.77,-212.6"/>
<text text-anchor="start" x="103.77" y="-224.8" font-family="Arial" font-size="14.00">name </text>
<text text-anchor="start" x="142.68" y="-224.8" font-family="Arial" font-size="14.00" fill="#666666">[varchar(255)]</text>
<polygon fill="none" stroke="black" points="96.77,-181.8 96.77,-212.6 350.45,-212.6 350.45,-181.8 96.77,-181.8"/>
<text text-anchor="start" x="103.77" y="-194" font-family="Arial" font-size="14.00">created_at </text>
<text text-anchor="start" x="173.81" y="-194" font-family="Arial" font-size="14.00" fill="#666666">[timestamp with time zone]</text>
<polygon fill="none" stroke="black" points="96.77,-151 96.77,-181.8 350.45,-181.8 350.45,-151 96.77,-151"/>
<text text-anchor="start" x="103.77" y="-163.2" font-family="Arial" font-size="14.00">updated_at </text>
<text text-anchor="start" x="177.72" y="-163.2" font-family="Arial" font-size="14.00" fill="#666666">[timestamp with time zone]</text>
<polygon fill="none" stroke="black" points="96.77,-120.2 96.77,-151 350.45,-151 350.45,-120.2 96.77,-120.2"/>
<text text-anchor="start" x="103.77" y="-132.4" font-family="Arial" font-size="14.00">organization_id </text>
<text text-anchor="start" x="202.61" y="-132.4" font-family="Arial" font-size="14.00" fill="#666666">[uuid]</text>
</g>
<!-- todo.todo_assignees&#45;&gt;todo.users -->
<g id="edge1" class="edge">
<title>todo.todo_assignees:user_id&#45;&gt;todo.users:id</title>
<path fill="none" stroke="black" d="M249.25,-650.6C39.62,-642.42 340.8,-380.19 350.45,-353 364.46,-313.54 393.32,-258.8 351.45,-258.8"/>
<polygon fill="black" stroke="black" points="249.29,-650.6 259.2,-655.29 254.62,-650.71 258.95,-650.79 258.95,-650.79 258.95,-650.79 254.62,-650.71 259.37,-646.29 249.29,-650.6"/>
<text text-anchor="start" x="7" y="-660.8" font-family="Arial" font-size="10.00">FOREIGN KEY (user_id) REFERENCES todo.users(id)</text>
</g>
<!-- todo.todos -->
<g id="node3" class="node">
<title>todo.todos</title>
<polygon fill="#efefef" stroke="none" points="454.77,-351.2 454.77,-386.8 708.45,-386.8 708.45,-351.2 454.77,-351.2"/>
<polygon fill="none" stroke="black" points="454.77,-351.2 454.77,-386.8 708.45,-386.8 708.45,-351.2 454.77,-351.2"/>
<text text-anchor="start" x="481.61" y="-364.6" font-family="Arial Bold" font-size="18.00">todo.todos</text>
<text text-anchor="start" x="557.12" y="-364.6" font-family="Arial" font-size="14.00">    </text>
<text text-anchor="start" x="588.23" y="-364.6" font-family="Arial" font-size="14.00" fill="#666666">[BASE TABLE]</text>
<polygon fill="none" stroke="black" points="454.77,-320.4 454.77,-351.2 708.45,-351.2 708.45,-320.4 454.77,-320.4"/>
<text text-anchor="start" x="461.77" y="-332.6" font-family="Arial" font-size="14.00">id </text>
<text text-anchor="start" x="476.55" y="-332.6" font-family="Arial" font-size="14.00" fill="#666666">[uuid]</text>
<polygon fill="none" stroke="black" points="454.77,-289.6 454.77,-320.4 708.45,-320.4 708.45,-289.6 454.77,-289.6"/>
<text text-anchor="start" x="461.77" y="-301.8" font-family="Arial" font-size="14.00">due_date </text>
<text text-anchor="start" x="524.05" y="-301.8" font-family="Arial" font-size="14.00" fill="#666666">[timestamp with time zone]</text>
<polygon fill="none" stroke="black" points="454.77,-258.8 454.77,-289.6 708.45,-289.6 708.45,-258.8 454.77,-258.8"/>
<text text-anchor="start" x="461.77" y="-271" font-family="Arial" font-size="14.00">title </text>
<text text-anchor="start" x="487.44" y="-271" font-family="Arial" font-size="14.00" fill="#666666">[varchar(255)]</text>
<polygon fill="none" stroke="black" points="454.77,-228 454.77,-258.8 708.45,-258.8 708.45,-228 454.77,-228"/>
<text text-anchor="start" x="461.77" y="-240.2" font-family="Arial" font-size="14.00">description </text>
<text text-anchor="start" x="533.36" y="-240.2" font-family="Arial" font-size="14.00" fill="#666666">[text]</text>
<polygon fill="none" stroke="black" points="454.77,-197.2 454.77,-228 708.45,-228 708.45,-197.2 454.77,-197.2"/>
<text text-anchor="start" x="461.77" y="-209.4" font-family="Arial" font-size="14.00">status </text>
<text text-anchor="start" x="503.01" y="-209.4" font-family="Arial" font-size="14.00" fill="#666666">[varchar(50)]</text>
<polygon fill="none" stroke="black" points="454.77,-166.4 454.77,-197.2 708.45,-197.2 708.45,-166.4 454.77,-166.4"/>
<text text-anchor="start" x="461.77" y="-178.6" font-family="Arial" font-size="14.00">visibility </text>
<text text-anchor="start" x="513.88" y="-178.6" font-family="Arial" font-size="14.00" fill="#666666">[varchar(50)]</text>
<polygon fill="none" stroke="black" points="454.77,-135.6 454.77,-166.4 708.45,-166.4 708.45,-135.6 454.77,-135.6"/>
<text text-anchor="start" x="461.77" y="-147.8" font-family="Arial" font-size="14.00">created_by_user_id </text>
<text text-anchor="start" x="588.63" y="-147.8" font-family="Arial" font-size="14.00" fill="#666666">[uuid]</text>
<polygon fill="none" stroke="black" points="454.77,-104.8 454.77,-135.6 708.45,-135.6 708.45,-104.8 454.77,-104.8"/>
<text text-anchor="start" x="461.77" y="-117" font-family="Arial" font-size="14.00">organization_id </text>
<text text-anchor="start" x="560.61" y="-117" font-family="Arial" font-size="14.00" fill="#666666">[uuid]</text>
<polygon fill="none" stroke="black" points="454.77,-74 454.77,-104.8 708.45,-104.8 708.45,-74 454.77,-74"/>
<text text-anchor="start" x="461.77" y="-86.2" font-family="Arial" font-size="14.00">created_at </text>
<text text-anchor="start" x="531.81" y="-86.2" font-family="Arial" font-size="14.00" fill="#666666">[timestamp with time zone]</text>
<polygon fill="none" stroke="black" points="454.77,-43.2 454.77,-74 708.45,-74 708.45,-43.2 454.77,-43.2"/>
<text text-anchor="start" x="461.77" y="-55.4" font-family="Arial" font-size="14.00">updated_at </text>
<text text-anchor="start" x="535.72" y="-55.4" font-family="Arial" font-size="14.00" fill="#666666">[timestamp with time zone]</text>
</g>
<!-- todo.todo_assignees&#45;&gt;todo.todos -->
<g id="edge2" class="edge">
<title>todo.todo_assignees:todo_id&#45;&gt;todo.todos:id</title>
<path fill="none" stroke="black" d="M555.95,-619.15C610.64,-609.47 581.03,-519.47 544.59,-466 520.38,-430.45 479.06,-465.5 454.77,-430 431.12,-395.45 411.9,-335.8 453.77,-335.8"/>
<polygon fill="black" stroke="black" points="555.89,-619.15 545.56,-615.49 550.58,-619.59 546.26,-619.95 546.26,-619.95 546.26,-619.95 550.58,-619.59 546.3,-624.46 555.89,-619.15"/>
<text text-anchor="start" x="552.59" y="-630" font-family="Arial" font-size="10.00">FOREIGN KEY (todo_id) REFERENCES todo.todos(id)</text>
</g>
</g>
</svg>
