<?xml version="1.0" encoding="UTF-8" standalone="no"?>
<!DOCTYPE svg PUBLIC "-//W3C//DTD SVG 1.1//EN"
 "http://www.w3.org/Graphics/SVG/1.1/DTD/svg11.dtd">
<!-- Generated by graphviz version 12.1.2 (20240928.0832)
 -->
<!-- Title: todo.organizations Pages: 1 -->
<svg width="1122pt" height="664pt"
 viewBox="0.00 0.00 1122.08 663.60" xmlns="http://www.w3.org/2000/svg" xmlns:xlink="http://www.w3.org/1999/xlink">
<g id="graph0" class="graph" transform="scale(1 1) rotate(0) translate(4 659.6)">
<title>todo.organizations</title>
<polygon fill="white" stroke="none" points="-4,4 -4,-659.6 1118.08,-659.6 1118.08,4 -4,4"/>
<!-- todo.organizations -->
<g id="node1" class="node">
<title>todo.organizations</title>
<polygon fill="#efefef" stroke="none" points="421.06,-107.8 421.06,-143.4 693.02,-143.4 693.02,-107.8 421.06,-107.8"/>
<polygon fill="none" stroke="black" points="421.06,-107.8 421.06,-143.4 693.02,-143.4 693.02,-107.8 421.06,-107.8"/>
<text text-anchor="start" x="428.06" y="-121.2" font-family="Arial Bold" font-size="18.00">todo.organizations</text>
<text text-anchor="start" x="561.53" y="-121.2" font-family="Arial" font-size="14.00">    </text>
<text text-anchor="start" x="592.65" y="-121.2" font-family="Arial" font-size="14.00" fill="#666666">[BASE TABLE]</text>
<polygon fill="none" stroke="black" points="421.06,-77 421.06,-107.8 693.02,-107.8 693.02,-77 421.06,-77"/>
<text text-anchor="start" x="428.06" y="-89.2" font-family="Arial" font-size="14.00">id </text>
<text text-anchor="start" x="442.85" y="-89.2" font-family="Arial" font-size="14.00" fill="#666666">[uuid]</text>
<polygon fill="none" stroke="black" points="421.06,-46.2 421.06,-77 693.02,-77 693.02,-46.2 421.06,-46.2"/>
<text text-anchor="start" x="428.06" y="-58.4" font-family="Arial" font-size="14.00">name </text>
<text text-anchor="start" x="466.97" y="-58.4" font-family="Arial" font-size="14.00" fill="#666666">[varchar(255)]</text>
<polygon fill="none" stroke="black" stroke-width="3" points="419.56,-44.7 419.56,-144.9 694.52,-144.9 694.52,-44.7 419.56,-44.7"/>
</g>
<!-- todo.users -->
<g id="node2" class="node">
<title>todo.users</title>
<polygon fill="#efefef" stroke="none" points="43.2,-499.8 43.2,-535.4 296.88,-535.4 296.88,-499.8 43.2,-499.8"/>
<polygon fill="none" stroke="black" points="43.2,-499.8 43.2,-535.4 296.88,-535.4 296.88,-499.8 43.2,-499.8"/>
<text text-anchor="start" x="71.05" y="-513.2" font-family="Arial Bold" font-size="18.00">todo.users</text>
<text text-anchor="start" x="144.54" y="-513.2" font-family="Arial" font-size="14.00">    </text>
<text text-anchor="start" x="175.66" y="-513.2" font-family="Arial" font-size="14.00" fill="#666666">[BASE TABLE]</text>
<polygon fill="none" stroke="black" points="43.2,-469 43.2,-499.8 296.88,-499.8 296.88,-469 43.2,-469"/>
<text text-anchor="start" x="50.2" y="-481.2" font-family="Arial" font-size="14.00">id </text>
<text text-anchor="start" x="64.99" y="-481.2" font-family="Arial" font-size="14.00" fill="#666666">[uuid]</text>
<polygon fill="none" stroke="black" points="43.2,-438.2 43.2,-469 296.88,-469 296.88,-438.2 43.2,-438.2"/>
<text text-anchor="start" x="50.2" y="-450.4" font-family="Arial" font-size="14.00">name </text>
<text text-anchor="start" x="89.11" y="-450.4" font-family="Arial" font-size="14.00" fill="#666666">[varchar(255)]</text>
<polygon fill="none" stroke="black" points="43.2,-407.4 43.2,-438.2 296.88,-438.2 296.88,-407.4 43.2,-407.4"/>
<text text-anchor="start" x="50.2" y="-419.6" font-family="Arial" font-size="14.00">created_at </text>
<text text-anchor="start" x="120.25" y="-419.6" font-family="Arial" font-size="14.00" fill="#666666">[timestamp with time zone]</text>
<polygon fill="none" stroke="black" points="43.2,-376.6 43.2,-407.4 296.88,-407.4 296.88,-376.6 43.2,-376.6"/>
<text text-anchor="start" x="50.2" y="-388.8" font-family="Arial" font-size="14.00">updated_at </text>
<text text-anchor="start" x="124.16" y="-388.8" font-family="Arial" font-size="14.00" fill="#666666">[timestamp with time zone]</text>
<polygon fill="none" stroke="black" points="43.2,-345.8 43.2,-376.6 296.88,-376.6 296.88,-345.8 43.2,-345.8"/>
<text text-anchor="start" x="50.2" y="-358" font-family="Arial" font-size="14.00">organization_id </text>
<text text-anchor="start" x="149.05" y="-358" font-family="Arial" font-size="14.00" fill="#666666">[uuid]</text>
</g>
<!-- todo.users&#45;&gt;todo.organizations -->
<g id="edge1" class="edge">
<title>todo.users:organization_id&#45;&gt;todo.organizations:id</title>
<path fill="none" stroke="black" d="M308.16,-360.43C357.86,-352.25 324.02,-280.84 349.04,-225.6 376.72,-164.49 352.97,-92.4 420.06,-92.4"/>
<polygon fill="black" stroke="black" points="308.19,-360.43 297.88,-356.69 302.87,-360.83 298.55,-361.15 298.55,-361.15 298.55,-361.15 302.87,-360.83 298.55,-365.66 308.19,-360.43"/>
<text text-anchor="start" x="222.46" y="-345.2" font-family="Arial" font-size="10.00">FOREIGN KEY (organization_id) REFERENCES todo.organizations(id)</text>
</g>
<!-- todo.organization_users -->
<g id="node3" class="node">
<title>todo.organization_users</title>
<polygon fill="#efefef" stroke="none" points="401.57,-453.6 401.57,-489.2 712.51,-489.2 712.51,-453.6 401.57,-453.6"/>
<polygon fill="none" stroke="black" points="401.57,-453.6 401.57,-489.2 712.51,-489.2 712.51,-453.6 401.57,-453.6"/>
<text text-anchor="start" x="408.57" y="-467" font-family="Arial Bold" font-size="18.00">todo.organization_users</text>
<text text-anchor="start" x="581.03" y="-467" font-family="Arial" font-size="14.00">    </text>
<text text-anchor="start" x="612.14" y="-467" font-family="Arial" font-size="14.00" fill="#666666">[BASE TABLE]</text>
<polygon fill="none" stroke="black" points="401.57,-422.8 401.57,-453.6 712.51,-453.6 712.51,-422.8 401.57,-422.8"/>
<text text-anchor="start" x="408.57" y="-435" font-family="Arial" font-size="14.00">organization_id </text>
<text text-anchor="start" x="507.41" y="-435" font-family="Arial" font-size="14.00" fill="#666666">[uuid]</text>
<polygon fill="none" stroke="black" points="401.57,-392 401.57,-422.8 712.51,-422.8 712.51,-392 401.57,-392"/>
<text text-anchor="start" x="408.57" y="-404.2" font-family="Arial" font-size="14.00">user_id </text>
<text text-anchor="start" x="458.37" y="-404.2" font-family="Arial" font-size="14.00" fill="#666666">[uuid]</text>
</g>
<!-- todo.organization_users&#45;&gt;todo.organizations -->
<g id="edge2" class="edge">
<title>todo.organization_users:organization_id&#45;&gt;todo.organizations:id</title>
<path fill="none" stroke="black" d="M723.71,-435.99C788.53,-406.54 767.38,-92.4 694.02,-92.4"/>
<polygon fill="black" stroke="black" points="723.62,-436.01 712.89,-433.73 718.4,-437.14 714.17,-438.06 714.17,-438.06 714.17,-438.06 718.4,-437.14 714.79,-442.53 723.62,-436.01"/>
<text text-anchor="start" x="720.51" y="-448.2" font-family="Arial" font-size="10.00">FOREIGN KEY (organization_id) REFERENCES todo.organizations(id)</text>
</g>
<!-- todo.todos -->
<g id="node4" class="node">
<title>todo.todos</title>
<polygon fill="#efefef" stroke="none" points="817.2,-576.8 817.2,-612.4 1070.88,-612.4 1070.88,-576.8 817.2,-576.8"/>
<polygon fill="none" stroke="black" points="817.2,-576.8 817.2,-612.4 1070.88,-612.4 1070.88,-576.8 817.2,-576.8"/>
<text text-anchor="start" x="844.04" y="-590.2" font-family="Arial Bold" font-size="18.00">todo.todos</text>
<text text-anchor="start" x="919.55" y="-590.2" font-family="Arial" font-size="14.00">    </text>
<text text-anchor="start" x="950.67" y="-590.2" font-family="Arial" font-size="14.00" fill="#666666">[BASE TABLE]</text>
<polygon fill="none" stroke="black" points="817.2,-546 817.2,-576.8 1070.88,-576.8 1070.88,-546 817.2,-546"/>
<text text-anchor="start" x="824.2" y="-558.2" font-family="Arial" font-size="14.00">id </text>
<text text-anchor="start" x="838.99" y="-558.2" font-family="Arial" font-size="14.00" fill="#666666">[uuid]</text>
<polygon fill="none" stroke="black" points="817.2,-515.2 817.2,-546 1070.88,-546 1070.88,-515.2 817.2,-515.2"/>
<text text-anchor="start" x="824.2" y="-527.4" font-family="Arial" font-size="14.00">due_date </text>
<text text-anchor="start" x="886.48" y="-527.4" font-family="Arial" font-size="14.00" fill="#666666">[timestamp with time zone]</text>
<polygon fill="none" stroke="black" points="817.2,-484.4 817.2,-515.2 1070.88,-515.2 1070.88,-484.4 817.2,-484.4"/>
<text text-anchor="start" x="824.2" y="-496.6" font-family="Arial" font-size="14.00">title </text>
<text text-anchor="start" x="849.88" y="-496.6" font-family="Arial" font-size="14.00" fill="#666666">[varchar(255)]</text>
<polygon fill="none" stroke="black" points="817.2,-453.6 817.2,-484.4 1070.88,-484.4 1070.88,-453.6 817.2,-453.6"/>
<text text-anchor="start" x="824.2" y="-465.8" font-family="Arial" font-size="14.00">description </text>
<text text-anchor="start" x="895.79" y="-465.8" font-family="Arial" font-size="14.00" fill="#666666">[text]</text>
<polygon fill="none" stroke="black" points="817.2,-422.8 817.2,-453.6 1070.88,-453.6 1070.88,-422.8 817.2,-422.8"/>
<text text-anchor="start" x="824.2" y="-435" font-family="Arial" font-size="14.00">status </text>
<text text-anchor="start" x="865.44" y="-435" font-family="Arial" font-size="14.00" fill="#666666">[varchar(50)]</text>
<polygon fill="none" stroke="black" points="817.2,-392 817.2,-422.8 1070.88,-422.8 1070.88,-392 817.2,-392"/>
<text text-anchor="start" x="824.2" y="-404.2" font-family="Arial" font-size="14.00">visibility </text>
<text text-anchor="start" x="876.32" y="-404.2" font-family="Arial" font-size="14.00" fill="#666666">[varchar(50)]</text>
<polygon fill="none" stroke="black" points="817.2,-361.2 817.2,-392 1070.88,-392 1070.88,-361.2 817.2,-361.2"/>
<text text-anchor="start" x="824.2" y="-373.4" font-family="Arial" font-size="14.00">created_by_user_id </text>
<text text-anchor="start" x="951.06" y="-373.4" font-family="Arial" font-size="14.00" fill="#666666">[uuid]</text>
<polygon fill="none" stroke="black" points="817.2,-330.4 817.2,-361.2 1070.88,-361.2 1070.88,-330.4 817.2,-330.4"/>
<text text-anchor="start" x="824.2" y="-342.6" font-family="Arial" font-size="14.00">organization_id </text>
<text text-anchor="start" x="923.05" y="-342.6" font-family="Arial" font-size="14.00" fill="#666666">[uuid]</text>
<polygon fill="none" stroke="black" points="817.2,-299.6 817.2,-330.4 1070.88,-330.4 1070.88,-299.6 817.2,-299.6"/>
<text text-anchor="start" x="824.2" y="-311.8" font-family="Arial" font-size="14.00">created_at </text>
<text text-anchor="start" x="894.25" y="-311.8" font-family="Arial" font-size="14.00" fill="#666666">[timestamp with time zone]</text>
<polygon fill="none" stroke="black" points="817.2,-268.8 817.2,-299.6 1070.88,-299.6 1070.88,-268.8 817.2,-268.8"/>
<text text-anchor="start" x="824.2" y="-281" font-family="Arial" font-size="14.00">updated_at </text>
<text text-anchor="start" x="898.16" y="-281" font-family="Arial" font-size="14.00" fill="#666666">[timestamp with time zone]</text>
</g>
<!-- todo.todos&#45;&gt;todo.organizations -->
<g id="edge3" class="edge">
<title>todo.todos:organization_id&#45;&gt;todo.organizations:id</title>
<path fill="none" stroke="black" d="M806.06,-344.98C762.02,-337.12 788.48,-274.6 765.04,-225.6 736.09,-165.08 761.11,-92.4 694.02,-92.4"/>
<polygon fill="black" stroke="black" points="805.9,-344.96 815.5,-350.26 811.22,-345.4 815.53,-345.75 815.53,-345.75 815.53,-345.75 811.22,-345.4 816.23,-341.29 805.9,-344.96"/>
<text text-anchor="start" x="493.52" y="-329.8" font-family="Arial" font-size="10.00">FOREIGN KEY (organization_id) REFERENCES todo.organizations(id)</text>
</g>
</g>
</svg>
