<?xml version="1.0" encoding="UTF-8" standalone="no"?>
<!DOCTYPE svg PUBLIC "-//W3C//DTD SVG 1.1//EN"
 "http://www.w3.org/Graphics/SVG/1.1/DTD/svg11.dtd">
<!-- Generated by graphviz version 12.1.2 (20240928.0832)
 -->
<!-- Title: todo.users Pages: 1 -->
<svg width="1505pt" height="976pt"
 viewBox="0.00 0.00 1505.36 975.60" xmlns="http://www.w3.org/2000/svg" xmlns:xlink="http://www.w3.org/1999/xlink">
<g id="graph0" class="graph" transform="scale(1 1) rotate(0) translate(4 971.6)">
<title>todo.users</title>
<polygon fill="white" stroke="none" points="-4,4 -4,-971.6 1501.36,-971.6 1501.36,4 -4,4"/>
<!-- todo.users -->
<g id="node1" class="node">
<title>todo.users</title>
<polygon fill="#efefef" stroke="none" points="644.83,-419.8 644.83,-455.4 898.51,-455.4 898.51,-419.8 644.83,-419.8"/>
<polygon fill="none" stroke="black" points="644.83,-419.8 644.83,-455.4 898.51,-455.4 898.51,-419.8 644.83,-419.8"/>
<text text-anchor="start" x="672.68" y="-433.2" font-family="Arial Bold" font-size="18.00">todo.users</text>
<text text-anchor="start" x="746.18" y="-433.2" font-family="Arial" font-size="14.00">    </text>
<text text-anchor="start" x="777.29" y="-433.2" font-family="Arial" font-size="14.00" fill="#666666">[BASE TABLE]</text>
<polygon fill="none" stroke="black" points="644.83,-389 644.83,-419.8 898.51,-419.8 898.51,-389 644.83,-389"/>
<text text-anchor="start" x="651.83" y="-401.2" font-family="Arial" font-size="14.00">id </text>
<text text-anchor="start" x="666.62" y="-401.2" font-family="Arial" font-size="14.00" fill="#666666">[uuid]</text>
<polygon fill="none" stroke="black" points="644.83,-358.2 644.83,-389 898.51,-389 898.51,-358.2 644.83,-358.2"/>
<text text-anchor="start" x="651.83" y="-370.4" font-family="Arial" font-size="14.00">name </text>
<text text-anchor="start" x="690.74" y="-370.4" font-family="Arial" font-size="14.00" fill="#666666">[varchar(255)]</text>
<polygon fill="none" stroke="black" points="644.83,-327.4 644.83,-358.2 898.51,-358.2 898.51,-327.4 644.83,-327.4"/>
<text text-anchor="start" x="651.83" y="-339.6" font-family="Arial" font-size="14.00">created_at </text>
<text text-anchor="start" x="721.88" y="-339.6" font-family="Arial" font-size="14.00" fill="#666666">[timestamp with time zone]</text>
<polygon fill="none" stroke="black" points="644.83,-296.6 644.83,-327.4 898.51,-327.4 898.51,-296.6 644.83,-296.6"/>
<text text-anchor="start" x="651.83" y="-308.8" font-family="Arial" font-size="14.00">updated_at </text>
<text text-anchor="start" x="725.79" y="-308.8" font-family="Arial" font-size="14.00" fill="#666666">[timestamp with time zone]</text>
<polygon fill="none" stroke="black" points="644.83,-265.8 644.83,-296.6 898.51,-296.6 898.51,-265.8 644.83,-265.8"/>
<text text-anchor="start" x="651.83" y="-278" font-family="Arial" font-size="14.00">organization_id </text>
<text text-anchor="start" x="750.68" y="-278" font-family="Arial" font-size="14.00" fill="#666666">[uuid]</text>
<polygon fill="none" stroke="black" stroke-width="3" points="643.33,-264.3 643.33,-456.9 900.01,-456.9 900.01,-264.3 643.33,-264.3"/>
</g>
<!-- todo.organizations -->
<g id="node6" class="node">
<title>todo.organizations</title>
<polygon fill="#efefef" stroke="none" points="635.69,-104.8 635.69,-140.4 907.65,-140.4 907.65,-104.8 635.69,-104.8"/>
<polygon fill="none" stroke="black" points="635.69,-104.8 635.69,-140.4 907.65,-140.4 907.65,-104.8 635.69,-104.8"/>
<text text-anchor="start" x="642.69" y="-118.2" font-family="Arial Bold" font-size="18.00">todo.organizations</text>
<text text-anchor="start" x="776.16" y="-118.2" font-family="Arial" font-size="14.00">    </text>
<text text-anchor="start" x="807.28" y="-118.2" font-family="Arial" font-size="14.00" fill="#666666">[BASE TABLE]</text>
<polygon fill="none" stroke="black" points="635.69,-74 635.69,-104.8 907.65,-104.8 907.65,-74 635.69,-74"/>
<text text-anchor="start" x="642.69" y="-86.2" font-family="Arial" font-size="14.00">id </text>
<text text-anchor="start" x="657.48" y="-86.2" font-family="Arial" font-size="14.00" fill="#666666">[uuid]</text>
<polygon fill="none" stroke="black" points="635.69,-43.2 635.69,-74 907.65,-74 907.65,-43.2 635.69,-43.2"/>
<text text-anchor="start" x="642.69" y="-55.4" font-family="Arial" font-size="14.00">name </text>
<text text-anchor="start" x="681.6" y="-55.4" font-family="Arial" font-size="14.00" fill="#666666">[varchar(255)]</text>
</g>
<!-- todo.users&#45;&gt;todo.organizations -->
<g id="edge5" class="edge">
<title>todo.users:organization_id&#45;&gt;todo.organizations:id</title>
<path fill="none" stroke="black" d="M772.49,-254.64C782.13,-199.4 874.43,-241.41 907.65,-183.6 928.51,-147.3 950.52,-89.4 908.65,-89.4"/>
<polygon fill="black" stroke="black" points="772.5,-254.5 767.22,-264.11 772.07,-259.82 771.73,-264.13 771.73,-264.13 771.73,-264.13 772.07,-259.82 776.19,-264.83 772.5,-254.5"/>
<text text-anchor="start" x="449" y="-274.8" font-family="Arial" font-size="10.00">FOREIGN KEY (organization_id) REFERENCES todo.organizations(id)</text>
</g>
<!-- todo.organization_users -->
<g id="node2" class="node">
<title>todo.organization_users</title>
<polygon fill="#efefef" stroke="none" points="43.2,-765.6 43.2,-801.2 354.15,-801.2 354.15,-765.6 43.2,-765.6"/>
<polygon fill="none" stroke="black" points="43.2,-765.6 43.2,-801.2 354.15,-801.2 354.15,-765.6 43.2,-765.6"/>
<text text-anchor="start" x="50.2" y="-779" font-family="Arial Bold" font-size="18.00">todo.organization_users</text>
<text text-anchor="start" x="222.66" y="-779" font-family="Arial" font-size="14.00">    </text>
<text text-anchor="start" x="253.78" y="-779" font-family="Arial" font-size="14.00" fill="#666666">[BASE TABLE]</text>
<polygon fill="none" stroke="black" points="43.2,-734.8 43.2,-765.6 354.15,-765.6 354.15,-734.8 43.2,-734.8"/>
<text text-anchor="start" x="50.2" y="-747" font-family="Arial" font-size="14.00">organization_id </text>
<text text-anchor="start" x="149.05" y="-747" font-family="Arial" font-size="14.00" fill="#666666">[uuid]</text>
<polygon fill="none" stroke="black" points="43.2,-704 43.2,-734.8 354.15,-734.8 354.15,-704 43.2,-704"/>
<text text-anchor="start" x="50.2" y="-716.2" font-family="Arial" font-size="14.00">user_id </text>
<text text-anchor="start" x="100.01" y="-716.2" font-family="Arial" font-size="14.00" fill="#666666">[uuid]</text>
</g>
<!-- todo.organization_users&#45;&gt;todo.users -->
<g id="edge1" class="edge">
<title>todo.organization_users:user_id&#45;&gt;todo.users:id</title>
<path fill="none" stroke="black" d="M365.47,-718.71C431.82,-709.09 357.01,-600.59 406.67,-537.6 481.52,-442.66 522.94,-404.4 643.83,-404.4"/>
<polygon fill="black" stroke="black" points="365.46,-718.71 355.18,-714.89 360.14,-719.07 355.82,-719.36 355.82,-719.36 355.82,-719.36 360.14,-719.07 355.78,-723.87 365.46,-718.71"/>
<text text-anchor="start" x="232.34" y="-703.4" font-family="Arial" font-size="10.00">FOREIGN KEY (user_id) REFERENCES todo.users(id)</text>
</g>
<!-- todo.todos -->
<g id="node3" class="node">
<title>todo.todos</title>
<polygon fill="#efefef" stroke="none" points="458.83,-888.8 458.83,-924.4 712.51,-924.4 712.51,-888.8 458.83,-888.8"/>
<polygon fill="none" stroke="black" points="458.83,-888.8 458.83,-924.4 712.51,-924.4 712.51,-888.8 458.83,-888.8"/>
<text text-anchor="start" x="485.68" y="-902.2" font-family="Arial Bold" font-size="18.00">todo.todos</text>
<text text-anchor="start" x="561.18" y="-902.2" font-family="Arial" font-size="14.00">    </text>
<text text-anchor="start" x="592.3" y="-902.2" font-family="Arial" font-size="14.00" fill="#666666">[BASE TABLE]</text>
<polygon fill="none" stroke="black" points="458.83,-858 458.83,-888.8 712.51,-888.8 712.51,-858 458.83,-858"/>
<text text-anchor="start" x="465.83" y="-870.2" font-family="Arial" font-size="14.00">id </text>
<text text-anchor="start" x="480.62" y="-870.2" font-family="Arial" font-size="14.00" fill="#666666">[uuid]</text>
<polygon fill="none" stroke="black" points="458.83,-827.2 458.83,-858 712.51,-858 712.51,-827.2 458.83,-827.2"/>
<text text-anchor="start" x="465.83" y="-839.4" font-family="Arial" font-size="14.00">due_date </text>
<text text-anchor="start" x="528.12" y="-839.4" font-family="Arial" font-size="14.00" fill="#666666">[timestamp with time zone]</text>
<polygon fill="none" stroke="black" points="458.83,-796.4 458.83,-827.2 712.51,-827.2 712.51,-796.4 458.83,-796.4"/>
<text text-anchor="start" x="465.83" y="-808.6" font-family="Arial" font-size="14.00">title </text>
<text text-anchor="start" x="491.51" y="-808.6" font-family="Arial" font-size="14.00" fill="#666666">[varchar(255)]</text>
<polygon fill="none" stroke="black" points="458.83,-765.6 458.83,-796.4 712.51,-796.4 712.51,-765.6 458.83,-765.6"/>
<text text-anchor="start" x="465.83" y="-777.8" font-family="Arial" font-size="14.00">description </text>
<text text-anchor="start" x="537.43" y="-777.8" font-family="Arial" font-size="14.00" fill="#666666">[text]</text>
<polygon fill="none" stroke="black" points="458.83,-734.8 458.83,-765.6 712.51,-765.6 712.51,-734.8 458.83,-734.8"/>
<text text-anchor="start" x="465.83" y="-747" font-family="Arial" font-size="14.00">status </text>
<text text-anchor="start" x="507.07" y="-747" font-family="Arial" font-size="14.00" fill="#666666">[varchar(50)]</text>
<polygon fill="none" stroke="black" points="458.83,-704 458.83,-734.8 712.51,-734.8 712.51,-704 458.83,-704"/>
<text text-anchor="start" x="465.83" y="-716.2" font-family="Arial" font-size="14.00">visibility </text>
<text text-anchor="start" x="517.95" y="-716.2" font-family="Arial" font-size="14.00" fill="#666666">[varchar(50)]</text>
<polygon fill="none" stroke="black" points="458.83,-673.2 458.83,-704 712.51,-704 712.51,-673.2 458.83,-673.2"/>
<text text-anchor="start" x="465.83" y="-685.4" font-family="Arial" font-size="14.00">created_by_user_id </text>
<text text-anchor="start" x="592.69" y="-685.4" font-family="Arial" font-size="14.00" fill="#666666">[uuid]</text>
<polygon fill="none" stroke="black" points="458.83,-642.4 458.83,-673.2 712.51,-673.2 712.51,-642.4 458.83,-642.4"/>
<text text-anchor="start" x="465.83" y="-654.6" font-family="Arial" font-size="14.00">organization_id </text>
<text text-anchor="start" x="564.68" y="-654.6" font-family="Arial" font-size="14.00" fill="#666666">[uuid]</text>
<polygon fill="none" stroke="black" points="458.83,-611.6 458.83,-642.4 712.51,-642.4 712.51,-611.6 458.83,-611.6"/>
<text text-anchor="start" x="465.83" y="-623.8" font-family="Arial" font-size="14.00">created_at </text>
<text text-anchor="start" x="535.88" y="-623.8" font-family="Arial" font-size="14.00" fill="#666666">[timestamp with time zone]</text>
<polygon fill="none" stroke="black" points="458.83,-580.8 458.83,-611.6 712.51,-611.6 712.51,-580.8 458.83,-580.8"/>
<text text-anchor="start" x="465.83" y="-593" font-family="Arial" font-size="14.00">updated_at </text>
<text text-anchor="start" x="539.79" y="-593" font-family="Arial" font-size="14.00" fill="#666666">[timestamp with time zone]</text>
</g>
<!-- todo.todos&#45;&gt;todo.users -->
<g id="edge2" class="edge">
<title>todo.todos:created_by_user_id&#45;&gt;todo.users:id</title>
<path fill="none" stroke="black" d="M723.64,-687.78C776.97,-678.47 745.37,-591.87 712.51,-537.6 694.87,-508.45 662.53,-530.72 644.83,-501.6 622.4,-464.68 600.63,-404.4 643.83,-404.4"/>
<polygon fill="black" stroke="black" points="723.82,-687.77 713.49,-684.09 718.5,-688.2 714.18,-688.55 714.18,-688.55 714.18,-688.55 718.5,-688.2 714.21,-693.06 723.82,-687.77"/>
<text text-anchor="start" x="405.86" y="-672.6" font-family="Arial" font-size="10.00">FOREIGN KEY (created_by_user_id) REFERENCES todo.users(id)</text>
</g>
<!-- todo.todo_assignees -->
<g id="node4" class="node">
<title>todo.todo_assignees</title>
<polygon fill="#efefef" stroke="none" points="816.69,-811.8 816.69,-847.4 1100.66,-847.4 1100.66,-811.8 816.69,-811.8"/>
<polygon fill="none" stroke="black" points="816.69,-811.8 816.69,-847.4 1100.66,-847.4 1100.66,-811.8 816.69,-811.8"/>
<text text-anchor="start" x="823.69" y="-825.2" font-family="Arial Bold" font-size="18.00">todo.todo_assignees</text>
<text text-anchor="start" x="969.17" y="-825.2" font-family="Arial" font-size="14.00">    </text>
<text text-anchor="start" x="1000.29" y="-825.2" font-family="Arial" font-size="14.00" fill="#666666">[BASE TABLE]</text>
<polygon fill="none" stroke="black" points="816.69,-781 816.69,-811.8 1100.66,-811.8 1100.66,-781 816.69,-781"/>
<text text-anchor="start" x="823.69" y="-793.2" font-family="Arial" font-size="14.00">user_id </text>
<text text-anchor="start" x="873.49" y="-793.2" font-family="Arial" font-size="14.00" fill="#666666">[uuid]</text>
<polygon fill="none" stroke="black" points="816.69,-750.2 816.69,-781 1100.66,-781 1100.66,-750.2 816.69,-750.2"/>
<text text-anchor="start" x="823.69" y="-762.4" font-family="Arial" font-size="14.00">todo_id </text>
<text text-anchor="start" x="873.51" y="-762.4" font-family="Arial" font-size="14.00" fill="#666666">[uuid]</text>
<polygon fill="none" stroke="black" points="816.69,-719.4 816.69,-750.2 1100.66,-750.2 1100.66,-719.4 816.69,-719.4"/>
<text text-anchor="start" x="823.69" y="-731.6" font-family="Arial" font-size="14.00">created_at </text>
<text text-anchor="start" x="893.73" y="-731.6" font-family="Arial" font-size="14.00" fill="#666666">[timestamp with time zone]</text>
<polygon fill="none" stroke="black" points="816.69,-688.6 816.69,-719.4 1100.66,-719.4 1100.66,-688.6 816.69,-688.6"/>
<text text-anchor="start" x="823.69" y="-700.8" font-family="Arial" font-size="14.00">updated_at </text>
<text text-anchor="start" x="897.64" y="-700.8" font-family="Arial" font-size="14.00" fill="#666666">[timestamp with time zone]</text>
<polygon fill="none" stroke="black" points="816.69,-657.8 816.69,-688.6 1100.66,-688.6 1100.66,-657.8 816.69,-657.8"/>
<text text-anchor="start" x="823.69" y="-670" font-family="Arial" font-size="14.00">created_by_user_id </text>
<text text-anchor="start" x="950.55" y="-670" font-family="Arial" font-size="14.00" fill="#666666">[uuid]</text>
</g>
<!-- todo.todo_assignees&#45;&gt;todo.users -->
<g id="edge3" class="edge">
<title>todo.todo_assignees:user_id&#45;&gt;todo.users:id</title>
<path fill="none" stroke="black" d="M805.61,-795.78C739.91,-787.02 792.7,-687.95 816.69,-614.6 835.96,-555.67 879.1,-560.49 898.51,-501.6 912.04,-460.57 942.72,-404.4 899.51,-404.4"/>
<polygon fill="black" stroke="black" points="805.37,-795.76 815.07,-800.87 810.7,-796.09 815.02,-796.36 815.02,-796.36 815.02,-796.36 810.7,-796.09 815.63,-791.89 805.37,-795.76"/>
<text text-anchor="start" x="822.69" y="-806.4" font-family="Arial" font-size="10.00">FOREIGN KEY (user_id) REFERENCES todo.users(id)</text>
</g>
<!-- todo.user_roles -->
<g id="node5" class="node">
<title>todo.user_roles</title>
<polygon fill="#efefef" stroke="none" points="1205.19,-765.6 1205.19,-801.2 1454.16,-801.2 1454.16,-765.6 1205.19,-765.6"/>
<polygon fill="none" stroke="black" points="1205.19,-765.6 1205.19,-801.2 1454.16,-801.2 1454.16,-765.6 1205.19,-765.6"/>
<text text-anchor="start" x="1212.19" y="-779" font-family="Arial Bold" font-size="18.00">todo.user_roles</text>
<text text-anchor="start" x="1322.67" y="-779" font-family="Arial" font-size="14.00">    </text>
<text text-anchor="start" x="1353.79" y="-779" font-family="Arial" font-size="14.00" fill="#666666">[BASE TABLE]</text>
<polygon fill="none" stroke="black" points="1205.19,-734.8 1205.19,-765.6 1454.16,-765.6 1454.16,-734.8 1205.19,-734.8"/>
<text text-anchor="start" x="1212.19" y="-747" font-family="Arial" font-size="14.00">user_id </text>
<text text-anchor="start" x="1262" y="-747" font-family="Arial" font-size="14.00" fill="#666666">[uuid]</text>
<polygon fill="none" stroke="black" points="1205.19,-704 1205.19,-734.8 1454.16,-734.8 1454.16,-704 1205.19,-704"/>
<text text-anchor="start" x="1212.19" y="-716.2" font-family="Arial" font-size="14.00">role_id </text>
<text text-anchor="start" x="1258.11" y="-716.2" font-family="Arial" font-size="14.00" fill="#666666">[uuid]</text>
</g>
<!-- todo.user_roles&#45;&gt;todo.users -->
<g id="edge4" class="edge">
<title>todo.user_roles:user_id&#45;&gt;todo.users:id</title>
<path fill="none" stroke="black" d="M1194.19,-749.65C1114.57,-740.19 1210.23,-611.44 1152.67,-537.6 1074.51,-437.32 1026.65,-404.4 899.51,-404.4"/>
<polygon fill="black" stroke="black" points="1193.87,-749.63 1203.61,-754.67 1199.2,-749.92 1203.52,-750.16 1203.52,-750.16 1203.52,-750.16 1199.2,-749.92 1204.1,-745.69 1193.87,-749.63"/>
<text text-anchor="start" x="951.57" y="-760.2" font-family="Arial" font-size="10.00">FOREIGN KEY (user_id) REFERENCES todo.users(id)</text>
</g>
</g>
</svg>
